# vtk DataFile Version 5.1
written by meshio v5.3.5
ASCII
DATASET UNSTRUCTURED_GRID
POINTS 822 double
0.032534 -0.00083 -0.001753 0.032358 -0.000709 0.00181 0.031984 0.00075 -0.001334 0.017215 0.007094 0.003972 0.017107 0.007127 -0.004019 0.016513 0.006424 -0.003938 0.016809 0.006284 0.003983 0.032078 0.000599 0.001685 0.031913 -0.000427 -0.001992 0.032155 -0.00083 -0.00267 0.032874 -0.001192 -0.002058 0.032541 -0.0007 -0.001128 0.031738 -8.3e-05 -0.001134 0.033113 -0.001186 -0.001228 0.032688 -0.001065 0.002135 0.032014 -0.000733 0.002699 0.03181 -0.000357 0.002031 0.032418 -0.000621 0.001241 0.032989 -0.001108 0.001369 0.031668 -5.8e-05 0.00125 0.032029 0.000776 -0.00085 0.032767 0.000207 -0.001053 0.032479 0.000286 -0.00175 0.031899 0.000591 -0.002224 0.031585 0.000996 -0.001496 0.031484 0.001155 -0.00085 0.017708 0.006872 0.004007 0.017756 0.007076 0.00329 0.017125 0.007296 0.003433 0.01678 0.007414 0.003528 0.016994 0.007111 0.004236 0.017603 0.006802 0.00439 0.017545 0.006918 -0.004086 0.017425 0.006864 -0.004434 0.016905 0.007147 -0.004246 0.017057 0.007313 -0.003475 0.017655 0.007072 -0.003428 0.016756 0.007421 -0.003544 0.016478 0.006652 -0.00324 0.015461 0.007012 -0.003495 0.015777 0.006543 -0.004623 0.017135 0.006121 -0.00406 0.017315 0.006315 -0.00318 0.016784 0.005956 -0.005107 0.017473 0.005988 0.004024 0.017088 0.005816 0.005124 0.015983 0.006401 0.004798 0.015463 0.006972 0.003624 0.016603 0.006586 0.003285 0.017525 0.006248 0.003127 0.031655 0.000862 0.001835 0.031887 0.000522 0.002451 0.032449 0.000241 0.002001 0.032151 0.000651 0.001206 0.031585 0.001054 0.001187 0.03276 0.000153 0.001374 0.032869 -0.00019 0.002347 0.033303 -0.000322 0.00155 0.033423 -0.0003 0.000612 0.032857 0.000173 0.00057 0.032191 0.000682 0.000522 0.032848 0.000199 -0.000246 0.032145 0.000728 -0.000196 0.031514 0.001179 -0.000185 0.031553 0.001132 0.000508 0.030942 0.001556 -0.000221 0.03095 0.001531 0.000527 0.030999 0.001432 0.001279 0.03036 0.001904 0.000526 0.0304 0.001801 0.001358 0.030423 0.001565 0.002182 0.031072 0.001199 0.002039 0.030468 0.001254 0.002956 0.031212 0.000867 0.002749 0.030546 0.000965 0.003623 0.031374 0.000544 0.003349 0.032148 0.000154 0.002954 0.031493 0.00033 0.003753 0.032359 -0.000124 0.003305 0.033164 -0.000522 0.002627 0.032502 -0.000311 0.003541 0.033374 -0.00076 0.002816 0.033925 -0.000923 0.001764 0.033659 -0.000655 0.001671 0.034037 -0.000854 0.000656 0.033773 -0.000603 0.000634 0.03404 -0.000845 -0.000373 0.033776 -0.000593 -0.000339 0.033429 -0.00029 -0.000302 0.033717 -0.000648 -0.001409 0.033341 -0.000301 -0.00127 0.033271 -0.000546 -0.002433 0.032948 -0.000183 -0.00214 0.032463 -0.000163 -0.003193 0.032208 0.00017 -0.002784 0.031578 0.000308 -0.003649 0.031424 0.00057 -0.003191 0.031229 0.000937 -0.002546 0.030606 0.000976 -0.003496 0.030509 0.001299 -0.002789 0.030442 0.001613 -0.001964 0.031067 0.001278 -0.001765 0.030427 0.001815 -0.001134 0.030985 0.001476 -0.000988 0.030381 0.001906 -0.000302 0.029784 0.002179 -0.001216 0.02977 0.002269 -0.000375 0.029757 0.002269 0.000503 0.029109 0.00266 -0.000408 0.029103 0.00266 0.000473 0.029086 0.002577 0.001347 0.02976 0.002169 0.001371 0.029024 0.002375 0.002204 0.02973 0.001955 0.00222 0.028937 0.002106 0.003047 0.029696 0.00167 0.003044 0.028879 0.00184 0.003826 0.029697 0.0014 0.00377 0.028857 0.00168 0.004304 0.029709 0.001232 0.004238 0.030607 0.000776 0.004067 0.029718 0.001128 0.004529 0.030654 0.000648 0.004356 0.031588 0.000177 0.00403 0.030693 0.000533 0.004625 0.03167 3.8e-05 0.004293 0.032633 -0.000486 0.003774 0.033564 -0.000977 0.002988 0.031708 -0.000137 0.004503 0.032712 -0.000689 0.003963 0.033695 -0.001221 0.003132 0.032685 -0.000956 0.004069 0.0337 -0.001518 0.003219 0.034286 -0.001736 0.001875 0.034272 -0.001451 0.001867 0.034156 -0.001176 0.001832 0.03433 -0.001387 0.000666 0.034233 -0.001117 0.000668 0.034335 -0.001366 -0.000403 0.034232 -0.001097 -0.000394 0.034282 -0.00144 -0.001599 0.034181 -0.00116 -0.001565 0.033989 -0.000915 -0.001502 0.033697 -0.001028 -0.002784 0.033499 -0.000804 -0.002625 0.032771 -0.000551 -0.003657 0.032623 -0.000362 -0.003425 0.03177 -2e-06 -0.004187 0.031678 0.000149 -0.003921 0.030788 0.000512 -0.00454 0.030741 0.000635 -0.004262 0.030685 0.000766 -0.003972 0.029805 0.001102 -0.00447 0.029795 0.001208 -0.004175 0.029777 0.001394 -0.003664 0.028926 0.001661 -0.004263 0.028948 0.001831 -0.003756 0.028987 0.002105 -0.00299 0.02975 0.001691 -0.002928 0.029055 0.002385 -0.002133 0.029761 0.001982 -0.002076 0.029103 0.002579 -0.001267 0.028309 0.002794 -0.002159 0.028371 0.002981 -0.001299 0.028389 0.003056 -0.000431 0.027598 0.003368 -0.001322 0.027624 0.003444 -0.000454 0.027626 0.003446 0.000416 0.028388 0.003057 0.000443 0.027601 0.00337 0.001283 0.028364 0.00298 0.001315 0.027529 0.003194 0.002138 0.028288 0.002788 0.002172 0.027411 0.002937 0.002985 0.02818 0.002527 0.003021 0.027301 0.002673 0.003793 0.028087 0.002261 0.003823 0.027246 0.002517 0.004291 0.028042 0.002104 0.004306 0.02722 0.002431 0.004568 0.02802 0.002015 0.004585 0.028845 0.001585 0.004589 0.027997 0.001934 0.004844 0.028831 0.001499 0.004854 0.02973 0.001028 0.004807 0.028797 0.001377 0.00508 0.029714 0.000898 0.005029 0.030703 0.000387 0.004853 0.029632 0.000671 0.005151 0.030634 0.000153 0.004976 0.031655 -0.000386 0.004616 0.030519 -0.000126 0.005009 0.031549 -0.000669 0.004652 0.032587 -0.001244 0.004097 0.033613 -0.001845 0.003247 0.031411 -0.000939 0.004596 0.032438 -0.001491 0.004025 0.033464 -0.002053 0.003157 0.03221 -0.001097 0.003328 0.033041 -0.001517 0.002613 0.033505 -0.001604 0.001569 0.034051 -0.002168 0.001794 0.034217 -0.001995 0.001848 0.034123 -0.002036 0.00061 0.034287 -0.001866 0.000637 0.034346 -0.001642 0.000658 0.034294 -0.001854 -0.000396 0.034356 -0.001622 -0.000403 0.034243 -0.001957 -0.001577 0.034303 -0.001708 -0.001602 0.033791 -0.001929 -0.003023 0.03386 -0.00159 -0.003004 0.03384 -0.001283 -0.002923 0.032854 -0.001025 -0.003967 0.032867 -0.000756 -0.003854 0.031795 -0.000423 -0.004554 0.031833 -0.000166 -0.004422 0.030755 0.000144 -0.004921 0.030819 0.000381 -0.004797 0.029745 0.000688 -0.005131 0.029817 0.000896 -0.005 0.029817 0.001 -0.004748 0.028879 0.001378 -0.005058 0.028898 0.001476 -0.00482 0.028912 0.001564 -0.004552 0.028051 0.001926 -0.004824 0.028074 0.002007 -0.004561 0.028097 0.002097 -0.004277 0.027251 0.002432 -0.004545 0.027281 0.002518 -0.004262 0.027332 0.002663 -0.003788 0.028136 0.002257 -0.003779 0.027422 0.002916 -0.003028 0.02821 0.002518 -0.003009 0.027527 0.003186 -0.00218 0.026624 0.003308 -0.003051 0.026736 0.003581 -0.002206 0.02681 0.003767 -0.001348 0.025925 0.003958 -0.002227 0.025998 0.004146 -0.001372 0.026026 0.004219 -0.000502 0.026836 0.003838 -0.000479 0.026029 0.004221 0.000366 0.02684 0.003841 0.000391 0.02601 0.004161 0.001229 0.026819 0.003773 0.001256 0.025948 0.003999 0.002074 0.026752 0.003607 0.002106 0.025845 0.003741 0.002903 0.026634 0.003346 0.002944 0.025735 0.003472 0.00371 0.026519 0.003081 0.003753 0.025665 0.003303 0.004243 0.026455 0.002918 0.00427 0.025631 0.003215 0.004529 0.026424 0.00283 0.004554 0.025597 0.003132 0.004802 0.026393 0.002749 0.00482 0.027194 0.002351 0.004833 0.026354 0.002654 0.005064 0.027155 0.002249 0.005071 0.027958 0.001821 0.005076 0.027061 0.002042 0.00519 0.027865 0.001605 0.005193 0.028707 0.001159 0.005195 0.02774 0.001338 0.005218 0.028581 0.000895 0.005216 0.029515 0.000395 0.005183 0.028433 0.000586 0.005137 0.029369 0.0001 0.005104 0.030372 -0.000414 0.004934 0.029424 0.000366 0.004226 0.03035 -0.000119 0.004093 0.031294 -0.000606 0.003795 0.030325 0.00017 0.003299 0.03119 -0.000293 0.003072 0.030294 0.000511 0.002443 0.031064 7.7e-05 0.002283 0.030235 0.000841 0.00149 0.030933 0.000419 0.001376 0.030165 0.001014 0.000482 0.030898 0.000545 0.000473 0.031669 1.4e-05 0.000463 0.032432 -0.000547 0.000473 0.0309 0.000549 -0.000379 0.031694 1e-06 -0.00035 0.032468 -0.00057 -0.000341 0.033091 -0.001087 -0.00035 0.033051 -0.001062 0.000507 0.033621 -0.001554 -0.000364 0.0336 -0.001543 0.000551 0.034124 -0.00203 -0.000382 0.033585 -0.001629 -0.001369 0.034076 -0.002126 -0.001533 0.033187 -0.001588 -0.002457 0.033625 -0.002125 -0.002957 0.032353 -0.001173 -0.003237 0.0326 -0.001582 -0.003919 0.032759 -0.001327 -0.003995 0.031539 -0.001005 -0.004518 0.031691 -0.000721 -0.004594 0.030485 -0.000471 -0.004913 0.03064 -0.000153 -0.00497 0.029455 5.5e-05 -0.005099 0.029622 0.000392 -0.005177 0.028486 0.000564 -0.005137 0.028659 0.000907 -0.00522 0.028795 0.001176 -0.005176 0.027793 0.001358 -0.005215 0.027922 0.001627 -0.005175 0.028018 0.001834 -0.005061 0.027092 0.002054 -0.005185 0.027187 0.002262 -0.005062 0.027222 0.002352 -0.004812 0.026364 0.002666 -0.005065 0.026402 0.002757 -0.004814 0.026436 0.002838 -0.004542 0.025591 0.003139 -0.00482 0.025626 0.003219 -0.004553 0.025662 0.003303 -0.00427 0.026471 0.002925 -0.004251 0.025722 0.003443 -0.003813 0.026526 0.003063 -0.003799 0.025819 0.003685 -0.003074 0.024916 0.00381 -0.003832 0.025008 0.00405 -0.003099 0.025105 0.004327 -0.002253 0.024189 0.004408 -0.003127 0.024281 0.004689 -0.002284 0.024344 0.004881 -0.00142 0.025174 0.00452 -0.001397 0.024376 0.004965 -0.000547 0.025203 0.004594 -0.000526 0.024382 0.00497 0.000325 0.025208 0.004598 0.000344 0.024362 0.004904 0.001185 0.02519 0.004538 0.001205 0.024315 0.004753 0.002026 0.025135 0.004381 0.002047 0.024238 0.004504 0.002836 0.025046 0.004124 0.00287 0.02415 0.004245 0.003602 0.024945 0.003859 0.003658 0.024083 0.004071 0.004155 0.024876 0.003687 0.004201 0.024043 0.003973 0.004481 0.024839 0.003597 0.004502 0.024006 0.003886 0.004779 0.024804 0.003513 0.004784 0.023965 0.003792 0.005056 0.024768 0.003429 0.005051 0.025559 0.003042 0.005058 0.024666 0.003207 0.005184 0.025462 0.002829 0.005175 0.026261 0.002449 0.005185 0.025339 0.002562 0.005221 0.026137 0.00218 0.00522 0.026937 0.001773 0.005217 0.025975 0.001829 0.005142 0.026778 0.00144 0.005141 0.027589 0.001022 0.005139 0.026904 0.001687 0.004256 0.027714 0.00127 0.004262 0.028553 0.000833 0.004264 0.027831 0.001538 0.003386 0.028648 0.001095 0.003397 0.02947 0.000638 0.003371 0.028736 0.001399 0.002507 0.029509 0.000951 0.002496 0.0288 0.001666 0.001556 0.029527 0.001244 0.00154 0.028817 0.00182 0.000515 0.0295 0.001416 0.000493 0.028826 0.001808 -0.000573 0.029523 0.001389 -0.000584 0.030192 0.000996 -0.000489 0.029583 0.001197 -0.00162 0.030334 0.000775 -0.00153 0.031005 0.000388 -0.001313 0.030403 0.000445 -0.002455 0.031199 5e-06 -0.002246 0.030429 0.000113 -0.003295 0.031325 -0.000372 -0.003052 0.03046 -0.000177 -0.004085 0.031422 -0.000677 -0.003751 0.029535 0.000594 -0.003399 0.029501 0.000322 -0.004238 0.028678 0.001075 -0.003414 0.028593 0.000816 -0.004277 0.027854 0.001527 -0.003391 0.027742 0.001265 -0.004269 0.027622 0.001018 -0.00514 0.02692 0.001686 -0.00426 0.026794 0.001435 -0.005141 0.026959 0.001779 -0.00523 0.025979 0.001835 -0.005142 0.02614 0.002178 -0.005219 0.026269 0.002459 -0.005184 0.025329 0.002565 -0.005225 0.025456 0.002842 -0.005192 0.02555 0.003047 -0.005068 0.024649 0.003207 -0.005189 0.024745 0.003414 -0.005069 0.024788 0.003509 -0.004827 0.023935 0.003788 -0.005071 0.023978 0.003882 -0.004831 0.024013 0.003959 -0.004566 0.024822 0.003588 -0.004564 0.02405 0.004042 -0.004287 0.024858 0.00367 -0.00429 0.024105 0.004172 -0.003854 0.023239 0.004408 -0.004281 0.023288 0.004528 -0.003872 0.023364 0.004752 -0.003154 0.022475 0.004878 -0.003882 0.02254 0.005093 -0.003181 0.022614 0.00537 -0.002329 0.023448 0.005031 -0.002307 0.022669 0.005566 -0.001457 0.023507 0.005224 -0.00144 0.022695 0.005653 -0.000573 0.023536 0.00531 -0.000562 0.022703 0.005669 0.000304 0.023543 0.005321 0.00031 0.022684 0.0056 0.001167 0.023524 0.005254 0.00117 0.022646 0.005452 0.002008 0.023479 0.005108 0.002008 0.022595 0.005211 0.002814 0.023417 0.004867 0.002811 0.022545 0.004963 0.00356 0.023351 0.004613 0.003564 0.022491 0.004784 0.004124 0.023289 0.004433 0.004129 0.022448 0.004684 0.004459 0.023247 0.004332 0.004467 0.022407 0.004594 0.004768 0.023208 0.004242 0.004771 0.022359 0.004492 0.005055 0.023164 0.004146 0.005054 0.022252 0.00425 0.005193 0.02306 0.003915 0.005183 0.023864 0.003567 0.00517 0.022929 0.003623 0.005209 0.023735 0.003283 0.005202 0.024539 0.002929 0.005222 0.023588 0.002956 0.005141 0.024379 0.002584 0.005141 0.025175 0.002207 0.005141 0.02451 0.002842 0.004237 0.025307 0.002467 0.004245 0.026105 0.002087 0.004251 0.025443 0.002746 0.003341 0.026236 0.00236 0.003352 0.02703 0.001956 0.003365 0.026377 0.002657 0.002444 0.027162 0.00225 0.002462 0.02795 0.001836 0.00249 0.02727 0.002495 0.001512 0.028045 0.00209 0.001542 0.027322 0.002613 0.000505 0.028091 0.002224 0.000522 0.027327 0.002611 -0.000527 0.028097 0.00222 -0.000545 0.027284 0.002495 -0.00153 0.028065 0.00209 -0.001561 0.028827 0.001654 -0.0016 0.027968 0.001822 -0.002499 0.028765 0.001376 -0.002533 0.029571 0.000904 -0.00254 0.027174 0.00224 -0.002471 0.027043 0.001949 -0.003371 0.026383 0.002651 -0.002456 0.026239 0.002356 -0.00336 0.026109 0.002091 -0.004255 0.025437 0.002745 -0.003351 0.025301 0.002476 -0.004251 0.025171 0.002218 -0.005142 0.024494 0.002853 -0.004246 0.024365 0.002591 -0.005141 0.024524 0.002935 -0.005223 0.023559 0.002965 -0.005141 0.023718 0.003314 -0.005231 0.02384 0.00358 -0.005187 0.02291 0.003683 -0.005228 0.02303 0.00395 -0.005193 0.023122 0.004155 -0.005069 0.022222 0.004299 -0.005177 0.022316 0.004505 -0.005064 0.022361 0.004603 -0.00483 0.023166 0.004249 -0.004829 0.022396 0.00468 -0.004565 0.023202 0.004326 -0.004563 0.02243 0.00476 -0.004288 0.02158 0.005034 -0.004571 0.021614 0.005112 -0.004296 0.021658 0.005228 -0.003896 0.02079 0.005466 -0.004303 0.020834 0.005575 -0.003918 0.02089 0.005777 -0.003241 0.021715 0.005436 -0.003208 0.020949 0.006047 -0.002382 0.021782 0.005709 -0.002353 0.020998 0.006252 -0.001493 0.021833 0.005909 -0.001474 0.021017 0.00634 -0.000587 0.021855 0.005998 -0.000581 0.021023 0.006349 0.000318 0.021861 0.006012 0.000307 0.021021 0.006282 0.001211 0.021849 0.005943 0.001181 0.021 0.00612 0.002077 0.021822 0.005791 0.002033 0.02096 0.00587 0.002892 0.021777 0.005545 0.002843 0.020917 0.005636 0.00362 0.021733 0.005303 0.003582 0.020875 0.005478 0.004142 0.021685 0.005132 0.004131 0.020836 0.005381 0.004477 0.021644 0.005034 0.004463 0.020796 0.005292 0.004789 0.021603 0.004944 0.004775 0.020742 0.005171 0.005063 0.021551 0.00483 0.005055 0.02063 0.004919 0.00518 0.02144 0.004582 0.005176 0.020509 0.004644 0.005207 0.021315 0.0043 0.005201 0.022122 0.003959 0.005211 0.021188 0.004013 0.005135 0.021989 0.00366 0.005137 0.022789 0.003308 0.005139 0.022113 0.003927 0.004215 0.022915 0.003573 0.004222 0.023714 0.003213 0.00423 0.02305 0.003847 0.003308 0.023851 0.003488 0.003319 0.024648 0.003119 0.003329 0.023992 0.003782 0.002404 0.02479 0.003414 0.002414 0.025586 0.003042 0.002428 0.024904 0.003653 0.00147 0.025702 0.003284 0.001481 0.026493 0.002901 0.001495 0.025749 0.003381 0.000491 0.026545 0.00301 0.000497 0.025752 0.003381 -0.000511 0.026546 0.003006 -0.000517 0.025704 0.00328 -0.001498 0.0265 0.0029 -0.001513 0.025585 0.003037 -0.002441 0.024904 0.00365 -0.001488 0.024785 0.003411 -0.002429 0.024635 0.003121 -0.003341 0.023983 0.003779 -0.002418 0.023832 0.00349 -0.003331 0.023689 0.003225 -0.00424 0.023024 0.003849 -0.003317 0.022883 0.003591 -0.004231 0.022753 0.003332 -0.00514 0.022075 0.00395 -0.004223 0.021947 0.003688 -0.005138 0.022102 0.004032 -0.005212 0.021136 0.004046 -0.005136 0.021278 0.004365 -0.005216 0.021399 0.004636 -0.005191 0.020443 0.004694 -0.005214 0.020562 0.004961 -0.005193 0.020664 0.00519 -0.005081 0.021498 0.004854 -0.005071 0.02072 0.005313 -0.004854 0.021546 0.004958 -0.004838 0.020755 0.005389 -0.004581 0.019887 0.005666 -0.004876 0.019924 0.005741 -0.004603 0.019961 0.005816 -0.004326 0.019077 0.006095 -0.004636 0.019118 0.006166 -0.00436 0.019164 0.006249 -0.004029 0.020005 0.005913 -0.003965 0.019231 0.006434 -0.00335 0.020062 0.00611 -0.003286 0.019304 0.006704 -0.002456 0.02012 0.006381 -0.002417 0.019352 0.00691 -0.001537 0.020168 0.006589 -0.001514 0.019363 0.006999 -0.000589 0.020182 0.006673 -0.000588 0.019372 0.007005 0.000364 0.020191 0.00668 0.000338 0.019385 0.006931 0.001305 0.020198 0.006614 0.001253 0.019367 0.006752 0.00221 0.020182 0.006442 0.002136 0.01933 0.006497 0.003052 0.020144 0.006187 0.002964 0.019289 0.006269 0.003783 0.020104 0.005958 0.003683 0.019248 0.006143 0.004231 0.020062 0.005815 0.004171 0.019212 0.00606 0.004541 0.020025 0.005722 0.004502 0.019177 0.005981 0.004835 0.019988 0.005637 0.00481 0.01912 0.00585 0.005074 0.019932 0.00551 0.00507 0.019017 0.005613 0.00518 0.019823 0.005262 0.005181 0.018904 0.00535 0.0052 0.019705 0.004995 0.0052 0.018784 0.005071 0.00513 0.019583 0.004719 0.005132 0.020385 0.004366 0.005133 0.019708 0.004983 0.00418 0.020509 0.004633 0.004198 0.021311 0.00428 0.004208 0.020634 0.004895 0.003267 0.021439 0.004549 0.003284 0.022244 0.0042 0.003297 0.021566 0.004817 0.002362 0.022375 0.004474 0.002377 0.023185 0.00413 0.00239 0.022478 0.004696 0.001438 0.023291 0.004357 0.001449 0.024102 0.004015 0.00146 0.023336 0.004452 0.000478 0.024148 0.004111 0.000484 0.02495 0.003748 0.000487 0.024148 0.00411 -0.000502 0.024951 0.003747 -0.000506 0.0241 0.004013 -0.001478 0.023335 0.004451 -0.000499 0.023286 0.004356 -0.001468 0.023172 0.004128 -0.002404 0.022468 0.004696 -0.001459 0.022355 0.004473 -0.002391 0.022212 0.004203 -0.003304 0.021534 0.00482 -0.002382 0.021395 0.004558 -0.003297 0.021262 0.004306 -0.004216 0.020574 0.004911 -0.003295 0.020443 0.004662 -0.004214 0.020317 0.004407 -0.005134 0.019614 0.005021 -0.004215 0.019487 0.004769 -0.005131 0.019604 0.005037 -0.005213 0.018641 0.005138 -0.005129 0.018753 0.005398 -0.005209 0.018864 0.005647 -0.00519 0.019718 0.005295 -0.005194 0.018968 0.005877 -0.005095 0.019823 0.005528 -0.00509 0.019039 0.006025 -0.004902 0.018082 0.006242 -0.005099 0.01816 0.006395 -0.004933 0.018202 0.006456 -0.004682 0.017261 0.00679 -0.004922 0.017339 0.006824 -0.004693 0.018251 0.006519 -0.004409 0.018311 0.006595 -0.004074 0.018414 0.006762 -0.003393 0.017754 0.00731 -0.002535 0.018518 0.00701 -0.002494 0.017853 0.007501 -0.001575 0.018574 0.007216 -0.001558 0.017911 0.007575 -0.000584 0.018596 0.007303 -0.000588 0.017918 0.007581 0.000415 0.018606 0.007308 0.000391 0.017883 0.007515 0.001415 0.018605 0.007234 0.001362 0.017802 0.007336 0.002389 0.018566 0.007052 0.002297 0.018528 0.006798 0.003157 0.018477 0.006575 0.003909 0.018423 0.006469 0.004325 0.017529 0.006752 0.004663 0.018384 0.006398 0.004608 0.017476 0.006703 0.004895 0.018351 0.006328 0.004876 0.01739 0.006578 0.005059 0.018291 0.006191 0.005075 0.01728 0.00636 0.005156 0.018201 0.00597 0.005174 0.017175 0.006104 0.005176 0.018098 0.005711 0.005194 0.017986 0.005421 0.005127 0.018161 0.005671 0.004098 0.018917 0.00533 0.004149 0.018286 0.005933 0.003116 0.01905 0.005588 0.003188 0.019835 0.005241 0.003239 0.019156 0.005849 0.002294 0.019956 0.005505 0.002323 0.02076 0.005161 0.002345 0.020036 0.00571 0.0014 0.020851 0.005372 0.001414 0.021665 0.005035 0.001427 0.020881 0.00546 0.000462 0.021701 0.005124 0.000468 0.022519 0.004788 0.000473 0.021695 0.005124 -0.000494 0.022515 0.004787 -0.000495 0.021645 0.005034 -0.00145 0.020871 0.005462 -0.000495 0.020821 0.005376 -0.001446 0.020711 0.005168 -0.002377 0.019996 0.005719 -0.001442 0.019887 0.005516 -0.002376 0.019745 0.005259 -0.0033 0.019072 0.005858 -0.002362 0.018912 0.005609 -0.003292 0.018769 0.005383 -0.004209 0.018107 0.005965 -0.003231 0.017929 0.005751 -0.004167 0.017768 0.005519 -0.005126 0.016896 0.006212 -0.005155 0.017877 0.005778 -0.005199 0.01702 0.006456 -0.005133 0.01798 0.00602 -0.005183 0.017149 0.006646 -0.00505 0.016144 0.007023 -0.004655 0.01636 0.007147 -0.004591 0.016547 0.00722 -0.004516 0.01673 0.00718 -0.004391 0.016069 0.007538 -0.003638 0.01629 0.007579 -0.003632 0.016502 0.007514 -0.003599 0.016352 0.007869 -0.002606 0.016593 0.00778 -0.002595 0.01684 0.00768 -0.002582 0.017139 0.007559 -0.002568 0.016712 0.007969 -0.001585 0.016973 0.007861 -0.001585 0.017278 0.007735 -0.001583 0.017057 0.007915 -0.000574 0.017359 0.007794 -0.000578 0.017062 0.007921 0.00044 0.017372 0.007797 0.000432 0.016975 0.007876 0.001469 0.017297 0.007746 0.001451 0.016844 0.007698 0.002508 0.017181 0.007572 0.002463 0.016708 0.007982 0.001481 0.01658 0.007795 0.00254 0.016525 0.007499 0.003595 0.016333 0.007847 0.002557 0.016285 0.007551 0.003662 0.016666 0.007154 0.004575 0.016839 0.00713 0.004401 0.016066 0.00751 0.003694 0.01651 0.007079 0.004693 0.015829 0.007406 0.003708 0.016308 0.006918 0.004806 0.015606 0.007221 0.003681 0.016109 0.006669 0.004844 0.015847 0.007725 0.002532 0.015651 0.007547 0.002487 0.015527 0.007301 0.002422 0.015754 0.007734 0.001424 0.015608 0.007494 0.001392 0.016563 0.007106 0.001387 0.016529 0.006903 0.002343 0.017468 0.006535 0.002294 0.017487 0.006732 0.001379 0.018368 0.006383 0.001377 0.018336 0.006188 0.002275 0.016569 0.007178 0.000439 0.017485 0.006814 0.000441 0.018369 0.006463 0.000444 0.019222 0.006124 0.000448 0.019214 0.006045 0.001386 0.017469 0.006815 -0.0005 0.018352 0.006465 -0.000498 0.019206 0.006127 -0.000496 0.020043 0.005794 -0.000495 0.020056 0.005791 0.000455 0.018324 0.006392 -0.001431 0.019169 0.006053 -0.001436 0.018258 0.006198 -0.002328 0.01744 0.006744 -0.001433 0.017393 0.006553 -0.002326 0.016532 0.007112 -0.001443 0.016475 0.006925 -0.002365 0.015606 0.00749 -0.001455 0.01553 0.007307 -0.002411 0.015752 0.00774 -0.001498 0.015673 0.007556 -0.002489 0.015609 0.007266 -0.003576 0.015826 0.007441 -0.003624 0.015919 0.006793 -0.004677 0.015871 0.00774 -0.002549 0.01611 0.007831 -0.002586 0.015954 0.007932 -0.001537 0.016201 0.008035 -0.001566 0.016467 0.00807 -0.001584 0.015988 0.008014 -0.000544 0.016241 0.008112 -0.000555 0.016512 0.008132 -0.000564 0.016777 0.008027 -0.000569 0.016241 0.008113 0.000454 0.016514 0.008139 0.000452 0.016781 0.008032 0.000446 0.016455 0.008083 0.00149 0.016189 0.008035 0.001478 0.016081 0.007825 0.002554 0.015947 0.007924 0.001457 0.015991 0.008003 0.00045 0.015786 0.007813 0.000443 0.015771 0.007831 -0.00053 0.015629 0.007546 -0.000514 0.015631 0.007552 0.000436 0.016558 0.007176 -0.000506 0.017112338215552966 0.006737306511694321 -0.004031799103252229 0.01706418559646804 0.006637268279631334 0.004548172153429909 0.016458876997574486 0.007073996647395368 -0.003955287478115386 0.01772697608344413 0.0064863170386492055 -0.004022318456769589 0.016932744671845086 0.007074441967210855 -0.003246095735285004 0.017768265828030063 0.006298104940952894 0.004631632908288267 0.01745437264986245 0.00634729109935854 -0.004733102907115907 0.016778097849857572 0.006719898775683165 -0.004549043673065616
CELLS 2414 9652
OFFSETS vtktypeint64
0
4
8
12
16
20
24
28
32
36
40
44
48
52
56
60
64
68
72
76
80
84
88
92
96
100
104
108
112
116
120
124
128
132
136
140
144
148
152
156
160
164
168
172
176
180
184
188
192
196
200
204
208
212
216
220
224
228
232
236
240
244
248
252
256
260
264
268
272
276
280
284
288
292
296
300
304
308
312
316
320
324
328
332
336
340
344
348
352
356
360
364
368
372
376
380
384
388
392
396
400
404
408
412
416
420
424
428
432
436
440
444
448
452
456
460
464
468
472
476
480
484
488
492
496
500
504
508
512
516
520
524
528
532
536
540
544
548
552
556
560
564
568
572
576
580
584
588
592
596
600
604
608
612
616
620
624
628
632
636
640
644
648
652
656
660
664
668
672
676
680
684
688
692
696
700
704
708
712
716
720
724
728
732
736
740
744
748
752
756
760
764
768
772
776
780
784
788
792
796
800
804
808
812
816
820
824
828
832
836
840
844
848
852
856
860
864
868
872
876
880
884
888
892
896
900
904
908
912
916
920
924
928
932
936
940
944
948
952
956
960
964
968
972
976
980
984
988
992
996
1000
1004
1008
1012
1016
1020
1024
1028
1032
1036
1040
1044
1048
1052
1056
1060
1064
1068
1072
1076
1080
1084
1088
1092
1096
1100
1104
1108
1112
1116
1120
1124
1128
1132
1136
1140
1144
1148
1152
1156
1160
1164
1168
1172
1176
1180
1184
1188
1192
1196
1200
1204
1208
1212
1216
1220
1224
1228
1232
1236
1240
1244
1248
1252
1256
1260
1264
1268
1272
1276
1280
1284
1288
1292
1296
1300
1304
1308
1312
1316
1320
1324
1328
1332
1336
1340
1344
1348
1352
1356
1360
1364
1368
1372
1376
1380
1384
1388
1392
1396
1400
1404
1408
1412
1416
1420
1424
1428
1432
1436
1440
1444
1448
1452
1456
1460
1464
1468
1472
1476
1480
1484
1488
1492
1496
1500
1504
1508
1512
1516
1520
1524
1528
1532
1536
1540
1544
1548
1552
1556
1560
1564
1568
1572
1576
1580
1584
1588
1592
1596
1600
1604
1608
1612
1616
1620
1624
1628
1632
1636
1640
1644
1648
1652
1656
1660
1664
1668
1672
1676
1680
1684
1688
1692
1696
1700
1704
1708
1712
1716
1720
1724
1728
1732
1736
1740
1744
1748
1752
1756
1760
1764
1768
1772
1776
1780
1784
1788
1792
1796
1800
1804
1808
1812
1816
1820
1824
1828
1832
1836
1840
1844
1848
1852
1856
1860
1864
1868
1872
1876
1880
1884
1888
1892
1896
1900
1904
1908
1912
1916
1920
1924
1928
1932
1936
1940
1944
1948
1952
1956
1960
1964
1968
1972
1976
1980
1984
1988
1992
1996
2000
2004
2008
2012
2016
2020
2024
2028
2032
2036
2040
2044
2048
2052
2056
2060
2064
2068
2072
2076
2080
2084
2088
2092
2096
2100
2104
2108
2112
2116
2120
2124
2128
2132
2136
2140
2144
2148
2152
2156
2160
2164
2168
2172
2176
2180
2184
2188
2192
2196
2200
2204
2208
2212
2216
2220
2224
2228
2232
2236
2240
2244
2248
2252
2256
2260
2264
2268
2272
2276
2280
2284
2288
2292
2296
2300
2304
2308
2312
2316
2320
2324
2328
2332
2336
2340
2344
2348
2352
2356
2360
2364
2368
2372
2376
2380
2384
2388
2392
2396
2400
2404
2408
2412
2416
2420
2424
2428
2432
2436
2440
2444
2448
2452
2456
2460
2464
2468
2472
2476
2480
2484
2488
2492
2496
2500
2504
2508
2512
2516
2520
2524
2528
2532
2536
2540
2544
2548
2552
2556
2560
2564
2568
2572
2576
2580
2584
2588
2592
2596
2600
2604
2608
2612
2616
2620
2624
2628
2632
2636
2640
2644
2648
2652
2656
2660
2664
2668
2672
2676
2680
2684
2688
2692
2696
2700
2704
2708
2712
2716
2720
2724
2728
2732
2736
2740
2744
2748
2752
2756
2760
2764
2768
2772
2776
2780
2784
2788
2792
2796
2800
2804
2808
2812
2816
2820
2824
2828
2832
2836
2840
2844
2848
2852
2856
2860
2864
2868
2872
2876
2880
2884
2888
2892
2896
2900
2904
2908
2912
2916
2920
2924
2928
2932
2936
2940
2944
2948
2952
2956
2960
2964
2968
2972
2976
2980
2984
2988
2992
2996
3000
3004
3008
3012
3016
3020
3024
3028
3032
3036
3040
3044
3048
3052
3056
3060
3064
3068
3072
3076
3080
3084
3088
3092
3096
3100
3104
3108
3112
3116
3120
3124
3128
3132
3136
3140
3144
3148
3152
3156
3160
3164
3168
3172
3176
3180
3184
3188
3192
3196
3200
3204
3208
3212
3216
3220
3224
3228
3232
3236
3240
3244
3248
3252
3256
3260
3264
3268
3272
3276
3280
3284
3288
3292
3296
3300
3304
3308
3312
3316
3320
3324
3328
3332
3336
3340
3344
3348
3352
3356
3360
3364
3368
3372
3376
3380
3384
3388
3392
3396
3400
3404
3408
3412
3416
3420
3424
3428
3432
3436
3440
3444
3448
3452
3456
3460
3464
3468
3472
3476
3480
3484
3488
3492
3496
3500
3504
3508
3512
3516
3520
3524
3528
3532
3536
3540
3544
3548
3552
3556
3560
3564
3568
3572
3576
3580
3584
3588
3592
3596
3600
3604
3608
3612
3616
3620
3624
3628
3632
3636
3640
3644
3648
3652
3656
3660
3664
3668
3672
3676
3680
3684
3688
3692
3696
3700
3704
3708
3712
3716
3720
3724
3728
3732
3736
3740
3744
3748
3752
3756
3760
3764
3768
3772
3776
3780
3784
3788
3792
3796
3800
3804
3808
3812
3816
3820
3824
3828
3832
3836
3840
3844
3848
3852
3856
3860
3864
3868
3872
3876
3880
3884
3888
3892
3896
3900
3904
3908
3912
3916
3920
3924
3928
3932
3936
3940
3944
3948
3952
3956
3960
3964
3968
3972
3976
3980
3984
3988
3992
3996
4000
4004
4008
4012
4016
4020
4024
4028
4032
4036
4040
4044
4048
4052
4056
4060
4064
4068
4072
4076
4080
4084
4088
4092
4096
4100
4104
4108
4112
4116
4120
4124
4128
4132
4136
4140
4144
4148
4152
4156
4160
4164
4168
4172
4176
4180
4184
4188
4192
4196
4200
4204
4208
4212
4216
4220
4224
4228
4232
4236
4240
4244
4248
4252
4256
4260
4264
4268
4272
4276
4280
4284
4288
4292
4296
4300
4304
4308
4312
4316
4320
4324
4328
4332
4336
4340
4344
4348
4352
4356
4360
4364
4368
4372
4376
4380
4384
4388
4392
4396
4400
4404
4408
4412
4416
4420
4424
4428
4432
4436
4440
4444
4448
4452
4456
4460
4464
4468
4472
4476
4480
4484
4488
4492
4496
4500
4504
4508
4512
4516
4520
4524
4528
4532
4536
4540
4544
4548
4552
4556
4560
4564
4568
4572
4576
4580
4584
4588
4592
4596
4600
4604
4608
4612
4616
4620
4624
4628
4632
4636
4640
4644
4648
4652
4656
4660
4664
4668
4672
4676
4680
4684
4688
4692
4696
4700
4704
4708
4712
4716
4720
4724
4728
4732
4736
4740
4744
4748
4752
4756
4760
4764
4768
4772
4776
4780
4784
4788
4792
4796
4800
4804
4808
4812
4816
4820
4824
4828
4832
4836
4840
4844
4848
4852
4856
4860
4864
4868
4872
4876
4880
4884
4888
4892
4896
4900
4904
4908
4912
4916
4920
4924
4928
4932
4936
4940
4944
4948
4952
4956
4960
4964
4968
4972
4976
4980
4984
4988
4992
4996
5000
5004
5008
5012
5016
5020
5024
5028
5032
5036
5040
5044
5048
5052
5056
5060
5064
5068
5072
5076
5080
5084
5088
5092
5096
5100
5104
5108
5112
5116
5120
5124
5128
5132
5136
5140
5144
5148
5152
5156
5160
5164
5168
5172
5176
5180
5184
5188
5192
5196
5200
5204
5208
5212
5216
5220
5224
5228
5232
5236
5240
5244
5248
5252
5256
5260
5264
5268
5272
5276
5280
5284
5288
5292
5296
5300
5304
5308
5312
5316
5320
5324
5328
5332
5336
5340
5344
5348
5352
5356
5360
5364
5368
5372
5376
5380
5384
5388
5392
5396
5400
5404
5408
5412
5416
5420
5424
5428
5432
5436
5440
5444
5448
5452
5456
5460
5464
5468
5472
5476
5480
5484
5488
5492
5496
5500
5504
5508
5512
5516
5520
5524
5528
5532
5536
5540
5544
5548
5552
5556
5560
5564
5568
5572
5576
5580
5584
5588
5592
5596
5600
5604
5608
5612
5616
5620
5624
5628
5632
5636
5640
5644
5648
5652
5656
5660
5664
5668
5672
5676
5680
5684
5688
5692
5696
5700
5704
5708
5712
5716
5720
5724
5728
5732
5736
5740
5744
5748
5752
5756
5760
5764
5768
5772
5776
5780
5784
5788
5792
5796
5800
5804
5808
5812
5816
5820
5824
5828
5832
5836
5840
5844
5848
5852
5856
5860
5864
5868
5872
5876
5880
5884
5888
5892
5896
5900
5904
5908
5912
5916
5920
5924
5928
5932
5936
5940
5944
5948
5952
5956
5960
5964
5968
5972
5976
5980
5984
5988
5992
5996
6000
6004
6008
6012
6016
6020
6024
6028
6032
6036
6040
6044
6048
6052
6056
6060
6064
6068
6072
6076
6080
6084
6088
6092
6096
6100
6104
6108
6112
6116
6120
6124
6128
6132
6136
6140
6144
6148
6152
6156
6160
6164
6168
6172
6176
6180
6184
6188
6192
6196
6200
6204
6208
6212
6216
6220
6224
6228
6232
6236
6240
6244
6248
6252
6256
6260
6264
6268
6272
6276
6280
6284
6288
6292
6296
6300
6304
6308
6312
6316
6320
6324
6328
6332
6336
6340
6344
6348
6352
6356
6360
6364
6368
6372
6376
6380
6384
6388
6392
6396
6400
6404
6408
6412
6416
6420
6424
6428
6432
6436
6440
6444
6448
6452
6456
6460
6464
6468
6472
6476
6480
6484
6488
6492
6496
6500
6504
6508
6512
6516
6520
6524
6528
6532
6536
6540
6544
6548
6552
6556
6560
6564
6568
6572
6576
6580
6584
6588
6592
6596
6600
6604
6608
6612
6616
6620
6624
6628
6632
6636
6640
6644
6648
6652
6656
6660
6664
6668
6672
6676
6680
6684
6688
6692
6696
6700
6704
6708
6712
6716
6720
6724
6728
6732
6736
6740
6744
6748
6752
6756
6760
6764
6768
6772
6776
6780
6784
6788
6792
6796
6800
6804
6808
6812
6816
6820
6824
6828
6832
6836
6840
6844
6848
6852
6856
6860
6864
6868
6872
6876
6880
6884
6888
6892
6896
6900
6904
6908
6912
6916
6920
6924
6928
6932
6936
6940
6944
6948
6952
6956
6960
6964
6968
6972
6976
6980
6984
6988
6992
6996
7000
7004
7008
7012
7016
7020
7024
7028
7032
7036
7040
7044
7048
7052
7056
7060
7064
7068
7072
7076
7080
7084
7088
7092
7096
7100
7104
7108
7112
7116
7120
7124
7128
7132
7136
7140
7144
7148
7152
7156
7160
7164
7168
7172
7176
7180
7184
7188
7192
7196
7200
7204
7208
7212
7216
7220
7224
7228
7232
7236
7240
7244
7248
7252
7256
7260
7264
7268
7272
7276
7280
7284
7288
7292
7296
7300
7304
7308
7312
7316
7320
7324
7328
7332
7336
7340
7344
7348
7352
7356
7360
7364
7368
7372
7376
7380
7384
7388
7392
7396
7400
7404
7408
7412
7416
7420
7424
7428
7432
7436
7440
7444
7448
7452
7456
7460
7464
7468
7472
7476
7480
7484
7488
7492
7496
7500
7504
7508
7512
7516
7520
7524
7528
7532
7536
7540
7544
7548
7552
7556
7560
7564
7568
7572
7576
7580
7584
7588
7592
7596
7600
7604
7608
7612
7616
7620
7624
7628
7632
7636
7640
7644
7648
7652
7656
7660
7664
7668
7672
7676
7680
7684
7688
7692
7696
7700
7704
7708
7712
7716
7720
7724
7728
7732
7736
7740
7744
7748
7752
7756
7760
7764
7768
7772
7776
7780
7784
7788
7792
7796
7800
7804
7808
7812
7816
7820
7824
7828
7832
7836
7840
7844
7848
7852
7856
7860
7864
7868
7872
7876
7880
7884
7888
7892
7896
7900
7904
7908
7912
7916
7920
7924
7928
7932
7936
7940
7944
7948
7952
7956
7960
7964
7968
7972
7976
7980
7984
7988
7992
7996
8000
8004
8008
8012
8016
8020
8024
8028
8032
8036
8040
8044
8048
8052
8056
8060
8064
8068
8072
8076
8080
8084
8088
8092
8096
8100
8104
8108
8112
8116
8120
8124
8128
8132
8136
8140
8144
8148
8152
8156
8160
8164
8168
8172
8176
8180
8184
8188
8192
8196
8200
8204
8208
8212
8216
8220
8224
8228
8232
8236
8240
8244
8248
8252
8256
8260
8264
8268
8272
8276
8280
8284
8288
8292
8296
8300
8304
8308
8312
8316
8320
8324
8328
8332
8336
8340
8344
8348
8352
8356
8360
8364
8368
8372
8376
8380
8384
8388
8392
8396
8400
8404
8408
8412
8416
8420
8424
8428
8432
8436
8440
8444
8448
8452
8456
8460
8464
8468
8472
8476
8480
8484
8488
8492
8496
8500
8504
8508
8512
8516
8520
8524
8528
8532
8536
8540
8544
8548
8552
8556
8560
8564
8568
8572
8576
8580
8584
8588
8592
8596
8600
8604
8608
8612
8616
8620
8624
8628
8632
8636
8640
8644
8648
8652
8656
8660
8664
8668
8672
8676
8680
8684
8688
8692
8696
8700
8704
8708
8712
8716
8720
8724
8728
8732
8736
8740
8744
8748
8752
8756
8760
8764
8768
8772
8776
8780
8784
8788
8792
8796
8800
8804
8808
8812
8816
8820
8824
8828
8832
8836
8840
8844
8848
8852
8856
8860
8864
8868
8872
8876
8880
8884
8888
8892
8896
8900
8904
8908
8912
8916
8920
8924
8928
8932
8936
8940
8944
8948
8952
8956
8960
8964
8968
8972
8976
8980
8984
8988
8992
8996
9000
9004
9008
9012
9016
9020
9024
9028
9032
9036
9040
9044
9048
9052
9056
9060
9064
9068
9072
9076
9080
9084
9088
9092
9096
9100
9104
9108
9112
9116
9120
9124
9128
9132
9136
9140
9144
9148
9152
9156
9160
9164
9168
9172
9176
9180
9184
9188
9192
9196
9200
9204
9208
9212
9216
9220
9224
9228
9232
9236
9240
9244
9248
9252
9256
9260
9264
9268
9272
9276
9280
9284
9288
9292
9296
9300
9304
9308
9312
9316
9320
9324
9328
9332
9336
9340
9344
9348
9352
9356
9360
9364
9368
9372
9376
9380
9384
9388
9392
9396
9400
9404
9408
9412
9416
9420
9424
9428
9432
9436
9440
9444
9448
9452
9456
9460
9464
9468
9472
9476
9480
9484
9488
9492
9496
9500
9504
9508
9512
9516
9520
9524
9528
9532
9536
9540
9544
9548
9552
9556
9560
9564
9568
9572
9576
9580
9584
9588
9592
9596
9600
9604
9608
9612
9616
9620
9624
9628
9632
9636
9640
9644
9648
9652
CONNECTIVITY vtktypeint64
661
581
780
714
816
35
4
37
814
42
5
41
642
575
576
573
642
641
498
710
69
70
278
67
193
273
196
195
784
733
783
731
69
370
278
70
633
328
634
417
782
661
780
42
759
753
758
755
483
403
401
402
707
706
638
502
354
451
356
450
549
237
236
239
242
628
630
545
257
353
351
256
666
774
667
669
650
713
646
644
474
313
392
311
642
565
640
564
272
125
128
190
38
37
728
818
485
559
487
484
226
227
392
390
571
652
574
569
266
264
363
362
572
566
569
570
482
480
557
481
493
495
491
561
502
500
638
707
561
495
491
494
762
768
807
805
442
445
449
352
716
648
715
647
407
478
403
317
817
814
36
32
719
717
820
821
814
817
36
42
453
454
456
173
573
642
575
571
661
817
714
36
6
750
752
815
505
508
705
506
508
420
422
702
662
818
36
782
738
739
768
813
595
691
596
598
561
492
491
493
255
451
177
179
630
239
547
552
118
178
362
180
583
585
779
584
583
584
711
582
599
600
689
597
42
41
814
817
762
763
745
747
449
445
353
352
634
633
555
328
171
458
169
170
632
331
629
329
641
499
498
710
590
509
777
507
338
625
336
542
404
483
405
490
554
324
321
319
555
553
325
326
407
317
318
478
267
363
271
268
434
518
533
520
697
700
510
698
427
622
621
624
800
736
738
813
688
607
684
686
701
703
422
423
248
340
246
540
503
504
705
706
695
694
511
697
796
733
799
783
517
598
692
600
71
70
278
276
388
221
223
152
671
766
670
765
799
783
798
795
665
585
587
778
730
795
783
796
662
664
781
782
33
821
814
34
110
461
109
371
740
741
743
762
38
39
786
788
411
410
559
408
601
688
603
678
806
757
807
763
590
775
771
589
668
773
769
739
763
762
807
806
311
394
392
474
813
736
738
739
659
820
817
33
765
673
764
766
441
439
442
437
618
514
516
428
798
799
802
813
442
352
449
348
672
764
743
765
810
808
813
797
508
700
422
510
765
769
762
741
99
98
97
379
783
784
785
787
776
505
705
503
583
665
778
585
660
579
714
715
45
685
44
815
552
239
330
630
27
764
28
743
642
564
567
565
442
349
348
347
332
630
330
239
27
764
674
49
41
717
820
43
520
519
517
615
181
182
362
183
518
615
618
616
538
344
342
537
423
632
333
626
777
592
696
509
524
521
526
523
616
519
520
615
680
678
603
688
234
470
162
464
776
505
507
705
442
352
350
349
365
363
117
118
629
631
330
630
599
688
676
675
607
688
609
686
536
535
537
343
454
174
456
173
651
650
653
649
324
556
325
327
739
736
737
813
698
700
424
701
360
362
359
265
356
354
262
451
627
625
336
335
422
423
424
701
699
700
510
697
579
661
712
581
679
819
680
682
45
819
44
685
637
561
412
559
791
816
5
722
563
562
560
561
335
625
624
627
130
131
129
127
167
460
462
164
348
352
350
442
183
261
263
185
473
470
471
232
557
478
409
324
114
364
457
367
204
133
200
202
333
629
334
627
604
601
689
603
397
315
313
314
319
475
321
554
540
539
537
340
188
264
184
266
355
445
353
449
437
439
442
347
83
14
81
79
495
642
494
640
244
545
242
243
425
426
424
623
368
70
113
115
254
450
252
253
334
629
628
627
78
15
273
275
372
374
106
104
274
276
73
277
536
433
619
534
187
272
124
125
337
625
336
338
272
270
192
191
288
85
18
290
200
84
82
137
372
280
375
104
221
150
386
149
161
465
463
163
294
141
144
142
399
402
317
400
403
317
401
402
633
629
329
632
451
357
262
356
536
343
537
341
560
482
484
559
485
559
484
483
449
254
252
346
254
450
253
255
467
470
233
471
260
258
182
262
633
329
631
328
200
137
82
135
19
59
55
283
14
18
83
200
57
14
1
18
492
411
493
561
181
180
362
182
461
168
108
164
553
552
549
238
240
237
547
239
146
296
145
144
219
221
306
388
19
53
282
54
476
475
320
319
66
280
65
281
509
699
507
510
367
115
113
114
554
323
325
553
147
149
217
383
60
64
62
282
19
53
55
59
369
370
113
367
229
471
392
227
257
451
255
179
553
323
325
326
106
374
102
104
164
163
462
166
453
253
452
450
162
465
467
159
456
458
171
172
241
243
547
548
557
406
408
409
238
239
330
552
553
475
323
551
410
559
408
557
558
637
412
559
207
290
138
289
320
473
230
322
377
379
469
100
164
166
462
167
204
203
200
290
309
390
392
308
126
131
129
273
3
30
6
815
97
96
380
379
399
476
397
315
87
85
88
288
16
52
76
56
83
82
81
14
57
14
79
56
17
59
55
58
262
258
361
451
645
713
648
647
609
688
687
686
559
561
412
411
478
324
319
409
232
470
472
473
354
355
450
356
528
615
616
613
414
561
493
411
528
613
530
527
198
131
129
126
476
318
316
317
395
476
396
477
475
323
321
554
556
558
634
327
464
163
162
234
534
347
442
535
704
502
638
706
401
478
557
480
675
597
690
674
642
641
640
496
482
401
557
480
388
306
386
305
491
561
489
490
741
769
670
765
645
713
646
648
498
499
582
710
645
644
646
713
502
500
707
499
30
31
677
815
752
754
6
815
641
499
707
500
615
519
517
600
603
601
689
688
639
496
640
641
649
650
653
713
48
28
49
764
818
732
36
35
716
717
718
43
633
629
631
329
484
559
487
563
702
504
705
506
410
324
327
556
478
324
556
554
139
289
292
138
561
492
559
490
503
706
705
776
631
552
330
630
614
603
608
604
447
445
355
449
556
478
557
324
332
331
330
629
324
554
325
556
639
561
640
414
581
780
711
583
483
401
404
402
485
486
488
487
482
483
484
559
344
535
449
346
456
454
457
174
559
492
408
406
557
559
406
405
407
405
557
406
492
405
559
490
637
558
412
413
410
411
559
412
559
411
408
492
586
776
505
588
609
607
608
614
780
583
778
779
559
563
484
560
409
410
408
557
554
553
325
555
557
559
408
406
559
483
557
482
556
324
557
410
482
481
557
559
496
500
498
641
403
478
401
317
230
471
233
232
401
482
557
483
486
489
487
490
561
411
559
492
405
492
559
406
486
483
404
490
645
644
643
646
559
558
557
410
403
407
557
478
410
558
557
556
341
339
537
536
561
563
559
560
482
481
559
560
401
403
557
478
483
403
557
401
361
357
359
265
480
479
557
481
480
478
557
479
486
490
485
483
559
483
485
490
494
561
489
491
405
407
557
403
629
331
330
329
407
478
409
557
235
321
322
475
483
403
405
557
559
483
405
557
559
490
405
483
402
483
405
404
402
403
405
483
557
324
409
410
406
407
409
557
410
558
412
559
558
410
412
413
252
452
251
253
558
410
327
556
413
410
327
558
456
173
171
455
549
552
547
239
546
243
547
545
567
642
643
564
42
714
36
661
640
563
566
487
414
415
639
637
500
415
639
496
703
420
421
419
642
496
495
498
496
500
641
639
501
706
707
502
327
556
555
634
640
565
566
563
775
587
589
590
496
642
495
640
414
637
639
561
554
323
321
325
561
411
414
412
496
415
639
414
561
490
491
492
637
561
414
412
413
637
414
412
413
415
414
637
702
420
703
418
570
572
571
569
653
649
715
651
784
732
783
735
279
276
277
71
813
783
737
781
494
495
640
561
662
818
732
36
563
561
640
562
414
496
640
639
495
561
414
640
561
495
414
493
564
565
640
562
642
495
494
497
495
496
640
414
567
644
643
642
238
552
330
326
644
650
567
646
38
730
784
818
567
646
643
644
563
562
640
565
486
490
487
485
642
496
498
641
290
206
207
204
311
313
392
225
312
397
311
313
642
644
568
567
561
563
487
559
559
490
487
561
485
490
487
559
640
563
487
561
487
488
572
489
657
821
724
721
567
565
568
642
487
570
572
488
640
642
566
565
567
644
568
650
641
500
498
499
487
490
489
561
489
486
487
488
566
642
568
565
561
494
572
640
489
494
572
561
574
713
653
650
570
487
572
566
561
487
572
489
561
640
572
487
566
640
572
642
574
713
577
653
566
487
572
640
581
582
711
712
494
497
573
642
497
495
498
642
419
328
633
417
494
642
572
640
642
494
572
573
781
783
737
735
781
773
737
813
573
642
571
572
657
820
655
658
568
652
571
569
642
644
571
568
569
572
571
566
569
566
571
568
568
566
571
642
572
642
571
566
574
651
653
652
644
574
577
575
722
816
726
790
6
3
49
48
35
814
4
36
776
590
777
507
725
34
816
821
782
38
784
818
501
499
709
582
653
651
656
655
602
521
604
615
787
794
797
783
820
720
715
718
762
747
807
806
728
816
38
726
40
816
789
39
3
31
30
815
714
660
715
817
15
56
78
79
525
615
604
521
6
31
44
26
33
32
814
817
815
749
679
750
712
579
714
661
646
713
649
648
38
37
816
728
646
650
649
713
42
661
780
714
5
722
816
821
16
52
1
17
650
651
653
574
577
713
656
653
124
187
186
188
785
787
810
811
498
710
582
580
816
40
789
791
507
509
777
699
575
713
577
644
503
584
501
708
656
715
659
817
752
750
749
815
30
750
6
815
3
31
6
26
815
685
819
683
756
815
754
685
679
819
815
677
648
716
715
718
568
652
574
571
568
650
574
652
644
568
574
571
644
650
574
568
644
713
574
650
644
713
577
574
571
642
575
644
575
713
578
577
650
651
574
652
660
661
714
579
577
713
578
659
708
706
501
503
48
751
750
748
413
558
634
636
626
632
701
423
574
571
575
644
419
329
421
632
36
814
42
818
703
419
421
632
501
502
707
499
813
799
800
783
798
783
797
794
808
805
807
768
546
460
548
167
576
642
580
644
578
575
576
644
583
780
711
779
700
703
422
701
654
651
656
649
655
651
656
654
661
581
714
712
577
656
715
659
658
721
820
821
34
816
814
4
577
713
715
656
644
713
578
575
579
713
578
644
660
713
578
579
40
816
39
5
658
721
657
820
642
710
580
644
498
710
580
642
517
615
614
617
648
713
715
647
676
44
688
819
642
497
580
498
631
328
555
633
575
642
576
644
644
579
576
578
580
579
576
644
497
642
576
573
642
576
580
497
659
713
715
577
730
728
37
818
782
42
38
818
814
38
5
42
578
713
715
659
660
713
715
578
578
659
715
660
725
723
821
816
37
731
730
818
731
35
732
818
728
730
38
818
718
720
715
648
579
713
715
660
648
720
715
649
649
713
715
648
784
732
782
818
784
730
731
818
649
654
715
656
649
720
715
654
649
653
715
713
656
651
715
649
653
651
715
656
656
713
715
653
44
675
688
690
644
713
712
579
580
579
712
581
580
581
712
582
582
710
712
580
49
764
674
767
775
774
589
587
663
661
780
662
580
710
712
644
580
644
712
579
579
713
714
715
712
713
714
579
732
784
731
818
814
4
816
818
687
819
688
44
820
715
656
817
813
773
737
739
715
820
656
654
523
525
606
604
659
820
656
817
32
659
660
817
734
735
736
783
795
796
799
783
818
36
782
42
40
816
5
791
789
816
722
790
788
790
792
38
719
723
722
821
787
794
783
784
6
31
815
44
811
812
813
809
659
32
33
817
40
791
5
821
722
723
816
821
789
790
788
38
659
715
660
817
762
805
807
747
41
717
821
820
708
706
707
501
793
727
729
728
662
735
781
664
782
735
781
662
666
778
667
774
626
425
701
623
588
779
587
585
583
582
711
581
602
519
614
600
779
584
711
583
582
710
711
712
779
583
778
585
784
732
781
782
733
734
800
783
663
581
780
661
734
735
783
732
733
783
800
799
784
735
781
732
781
664
778
782
38
39
788
789
786
787
785
784
782
732
781
735
734
731
783
733
6
753
750
751
736
783
737
813
784
795
783
730
735
784
781
783
730
733
783
784
796
733
783
730
794
795
783
784
782
662
780
661
663
581
583
780
663
662
780
782
726
728
793
38
727
728
793
726
806
747
807
805
726
38
792
790
793
38
792
726
729
795
730
796
663
664
778
665
793
728
730
38
729
728
730
793
675
44
49
690
756
815
6
754
793
795
730
729
734
732
783
784
581
714
711
780
736
783
800
734
770
766
671
765
784
731
783
734
662
664
782
663
734
732
784
731
688
819
684
680
675
44
26
49
730
733
784
731
786
788
784
38
786
787
784
788
783
787
785
811
730
38
784
793
792
793
784
38
792
38
784
788
792
788
784
787
730
793
784
795
794
795
784
793
792
787
784
794
792
794
784
793
770
589
771
775
639
415
638
637
36
661
782
42
662
661
782
36
662
732
782
735
662
818
782
732
31
677
815
819
688
678
676
819
421
703
422
420
782
664
778
663
623
426
424
698
418
702
635
703
780
782
778
663
581
712
711
714
762
761
760
768
776
775
771
590
777
772
696
592
586
584
779
585
507
699
508
510
794
795
798
783
708
584
779
586
780
663
778
583
583
663
778
665
502
706
704
504
665
778
667
666
587
774
667
778
778
665
667
587
777
592
771
772
799
783
813
798
585
586
588
779
636
415
416
417
707
499
709
501
418
504
704
702
427
622
624
337
453
452
251
249
506
420
702
418
797
801
813
798
775
779
588
708
586
708
588
779
419
635
416
417
503
505
705
506
776
775
588
708
776
708
588
586
813
783
800
736
783
798
797
813
813
809
810
811
736
735
737
783
589
775
770
774
781
735
737
664
591
770
671
669
453
173
456
455
588
775
587
779
590
588
507
776
778
585
587
779
801
797
813
808
776
590
771
777
758
761
760
759
797
783
810
787
813
783
810
797
783
811
810
787
813
811
810
783
798
813
802
801
620
426
621
623
778
774
666
773
778
664
666
665
781
773
666
737
737
664
666
781
781
778
666
773
781
664
666
778
779
774
587
778
775
774
587
779
334
628
630
242
626
425
624
335
506
504
705
503
705
504
704
706
502
504
704
418
419
417
633
635
413
417
634
328
502
500
416
638
419
329
633
328
636
417
416
635
628
542
244
336
635
703
633
419
413
415
636
417
636
637
638
415
623
426
621
427
618
428
619
621
586
584
503
708
512
698
424
426
776
708
503
706
586
776
503
505
586
708
503
776
504
706
501
502
503
706
501
504
702
504
704
705
703
420
419
418
634
328
555
327
638
500
416
415
707
500
638
639
500
415
638
639
500
639
707
641
637
415
636
413
418
504
702
506
558
637
636
413
343
433
534
435
340
339
537
341
501
708
709
707
510
697
511
509
618
430
516
518
413
328
634
327
703
419
632
633
238
552
549
239
703
418
419
635
590
592
771
777
546
460
169
544
534
434
533
436
769
669
770
774
632
329
421
331
419
329
632
633
326
631
330
329
501
584
709
708
726
38
790
816
704
702
635
418
638
415
416
636
421
331
423
632
548
237
550
549
558
413
634
327
418
635
416
419
638
704
416
502
636
704
416
638
418
704
416
635
418
502
416
704
635
704
416
636
701
423
424
425
422
701
424
700
167
460
164
168
636
417
634
413
635
417
634
636
633
417
634
635
708
584
709
779
582
584
709
501
582
710
709
711
711
584
709
582
641
710
709
499
641
499
709
707
582
499
709
710
711
779
709
584
452
450
252
449
693
694
696
594
425
623
424
701
764
673
674
767
594
592
696
772
750
753
752
751
260
262
182
261
620
428
621
426
629
632
333
331
627
335
336
334
536
339
537
539
355
354
450
353
629
627
333
626
337
625
624
335
702
700
422
508
423
331
333
632
425
626
333
335
589
774
770
669
337
335
624
427
632
703
423
421
425
423
333
626
623
698
424
701
626
627
333
335
314
399
315
400
512
697
511
510
510
698
424
512
603
682
684
605
439
436
437
441
699
697
510
509
626
632
333
629
337
539
339
622
241
243
548
166
539
622
337
625
337
622
624
625
335
425
624
427
334
629
630
628
149
220
219
221
335
627
624
626
737
773
668
739
768
741
769
739
738
813
803
800
522
521
526
524
618
428
516
430
348
347
346
535
626
425
623
624
624
425
623
427
427
425
623
426
427
426
621
428
510
699
508
700
427
624
621
623
763
762
806
747
593
766
671
591
748
757
751
806
698
426
620
623
423
632
701
703
776
588
507
505
423
703
422
421
626
423
701
425
769
669
671
770
760
762
807
763
588
775
590
587
510
700
424
698
808
810
813
809
776
775
590
588
671
769
670
668
595
767
674
673
512
695
511
697
422
700
424
510
506
420
508
702
508
505
705
507
507
705
508
699
702
700
508
699
705
702
508
699
705
506
508
702
695
698
512
620
620
698
512
426
698
697
512
510
698
695
512
697
703
702
422
420
700
702
422
703
695
694
513
511
747
805
804
745
747
805
745
762
666
773
668
737
666
669
668
774
666
774
668
773
593
772
693
767
507
705
777
776
507
699
777
705
590
592
777
509
667
774
589
669
587
774
589
667
592
590
771
589
668
669
769
774
765
769
670
671
802
799
803
813
813
799
803
800
768
739
769
773
766
673
764
767
672
673
674
764
813
739
768
773
593
673
671
766
668
774
769
773
597
595
598
691
738
741
768
739
764
765
672
673
766
770
671
591
769
739
670
668
738
813
768
803
674
49
690
675
813
812
768
809
768
812
760
809
813
809
768
808
715
820
654
720
813
808
768
801
808
805
768
801
813
802
768
803
813
801
768
802
743
672
27
764
761
812
760
768
693
593
594
772
765
766
670
673
672
765
670
673
595
693
596
691
766
772
593
767
766
767
593
673
763
747
746
745
669
769
671
668
514
428
618
620
434
432
533
518
46
756
6
47
595
693
690
767
674
767
690
49
675
597
599
688
594
772
696
693
594
511
696
592
511
694
696
697
594
694
696
511
777
509
696
699
697
699
696
509
511
509
696
592
697
509
696
511
768
741
762
769
671
673
670
766
741
765
670
672
809
807
768
808
743
764
28
763
807
809
768
760
740
762
743
742
763
761
760
762
691
693
596
694
674
597
690
595
27
764
49
28
759
761
760
763
675
27
674
49
760
763
807
757
768
762
807
760
758
763
760
757
759
763
760
758
764
763
48
28
819
679
815
681
674
595
690
767
762
763
743
742
745
805
744
762
589
592
591
771
672
765
743
741
367
365
368
115
740
768
744
803
768
802
744
803
771
592
591
772
740
762
744
768
613
528
530
616
804
805
744
745
762
805
744
768
593
772
591
594
693
593
596
594
768
741
740
762
768
738
740
741
594
772
591
592
803
738
740
768
758
753
751
757
804
801
744
805
768
805
744
801
801
802
744
768
804
802
744
801
769
741
670
739
744
762
742
745
740
762
742
744
593
766
591
772
762
763
742
745
765
764
743
763
762
765
743
763
762
741
743
765
770
669
591
589
771
772
591
766
770
771
591
766
770
589
591
771
765
769
671
770
746
757
748
806
806
747
748
746
747
763
746
806
442
349
350
348
441
438
439
436
763
757
746
806
33
41
817
814
756
755
6
47
763
742
28
743
29
742
28
763
595
593
596
693
46
815
6
756
29
763
48
746
763
745
29
742
746
745
29
763
685
819
683
684
763
29
48
28
672
764
674
27
759
47
48
755
691
693
690
595
608
615
610
614
693
767
595
593
791
816
722
789
816
35
818
4
759
755
48
753
33
41
820
817
594
694
596
693
758
753
48
751
759
753
48
758
758
763
48
759
593
767
595
673
757
758
48
751
757
763
48
758
748
757
48
751
748
746
48
757
763
757
48
746
689
688
609
607
430
518
618
432
595
597
690
691
599
601
676
688
49
27
26
675
749
815
679
681
445
444
449
447
750
751
749
748
750
751
752
749
6
751
750
48
615
519
602
521
603
605
684
607
126
81
129
198
687
819
44
45
690
597
688
691
675
597
688
690
273
80
123
125
512
695
513
511
687
819
45
686
33
820
821
658
603
606
608
604
689
601
614
602
48
748
750
746
680
682
603
605
596
694
692
691
46
815
45
6
601
688
678
676
727
728
726
816
48
28
3
49
820
656
654
655
620
695
514
512
528
615
527
525
26
676
44
675
603
680
684
682
603
607
684
688
603
688
684
680
438
522
526
524
685
815
819
44
47
755
6
48
815
46
45
685
681
819
682
684
814
38
42
818
6
755
754
753
615
519
614
602
45
819
685
686
604
615
614
602
602
601
614
604
41
820
821
814
819
681
682
679
688
819
680
678
39
816
789
38
819
686
688
684
819
687
688
686
754
753
752
6
48
755
6
753
30
48
3
6
48
753
6
751
789
790
38
816
756
755
754
6
686
819
685
684
337
622
339
429
681
819
684
683
604
521
523
525
39
816
38
5
514
620
617
695
656
820
33
658
676
44
675
688
614
609
610
608
750
6
752
753
746
29
30
48
523
521
526
525
746
48
30
750
29
48
3
30
29
28
3
48
816
722
726
723
28
27
3
49
750
48
30
6
26
49
3
27
618
517
516
617
353
352
351
256
435
433
534
434
522
438
526
436
551
549
236
238
596
594
513
694
511
694
513
594
616
522
520
519
613
615
527
528
542
539
338
625
527
608
615
610
198
131
193
130
537
535
538
344
345
344
346
535
442
347
348
535
537
340
538
540
689
604
614
601
344
535
345
343
445
442
449
444
608
604
606
525
611
688
687
609
689
688
611
609
441
437
442
534
602
600
689
599
513
512
514
695
534
437
442
347
614
615
610
612
614
612
610
611
528
525
616
615
526
525
616
528
522
521
616
526
617
615
618
517
617
517
516
515
517
615
618
518
454
451
361
177
521
525
616
526
521
615
616
525
521
519
616
615
522
519
616
521
518
615
520
517
615
518
520
616
621
620
618
428
518
533
618
432
620
426
514
428
512
426
514
620
617
514
618
620
434
433
533
432
429
622
619
621
517
618
516
518
617
514
516
618
617
515
516
514
513
515
617
514
514
695
617
513
348
535
449
442
517
515
617
598
256
352
351
350
447
444
449
535
348
254
449
346
604
615
608
614
615
600
614
519
436
434
533
520
453
253
251
452
619
433
533
534
427
337
429
622
536
343
341
433
427
622
429
621
621
428
429
427
527
613
610
615
618
432
619
430
432
431
619
430
689
597
692
691
432
433
619
431
536
429
619
431
272
195
192
270
691
597
692
598
255
450
253
451
345
535
346
347
534
535
442
444
534
444
442
441
238
553
551
549
599
601
689
602
439
349
442
347
531
528
529
533
611
609
610
614
533
528
529
526
534
433
533
434
536
431
619
433
354
259
260
258
606
603
608
605
544
247
543
541
536
433
341
431
536
431
341
339
343
435
534
345
345
535
534
343
434
436
534
435
534
441
443
444
596
691
692
598
345
435
534
437
437
435
534
436
437
436
534
441
538
535
449
344
257
259
351
353
533
526
529
440
356
451
358
450
347
345
534
437
347
535
534
345
534
535
536
343
619
432
533
433
534
343
536
433
339
539
536
622
533
618
432
619
339
429
536
431
622
429
536
339
520
518
533
616
536
622
619
429
520
616
533
522
340
539
537
339
430
431
619
429
618
430
619
428
428
430
619
429
429
621
619
428
343
535
537
344
175
453
251
173
249
173
251
453
453
451
454
177
273
190
129
126
533
518
618
616
520
522
533
436
355
449
353
450
602
600
614
689
532
534
533
443
346
344
252
449
616
526
533
522
436
522
533
526
616
528
533
526
112
174
457
114
443
532
529
533
534
441
533
443
534
436
533
441
530
533
528
531
531
533
529
532
440
443
529
533
597
688
689
599
608
527
615
525
597
691
689
688
524
438
440
526
441
443
440
533
688
607
689
603
441
436
440
438
533
436
440
441
442
535
449
444
599
688
689
601
533
526
440
436
438
436
440
526
258
259
257
354
617
598
692
517
617
517
692
614
607
603
608
614
612
615
610
613
607
605
608
603
604
525
608
615
517
600
614
615
609
689
614
611
614
600
692
689
607
689
614
609
614
517
692
600
534
444
446
535
443
446
534
444
689
603
614
604
607
603
614
689
689
600
692
597
598
597
692
600
617
515
692
598
596
598
692
515
513
694
692
596
617
513
692
515
596
515
692
513
513
695
692
694
617
695
692
513
446
443
534
532
346
535
449
348
118
180
362
181
95
151
381
96
223
307
308
309
357
451
358
356
446
444
447
535
357
451
359
358
372
370
111
369
178
179
361
180
182
357
263
262
354
451
257
258
450
451
257
354
353
450
257
354
354
259
257
353
260
258
262
354
453
177
454
175
183
182
263
261
253
451
177
255
267
268
271
269
356
450
358
448
114
176
364
116
176
175
174
454
449
538
252
452
458
459
170
172
116
115
365
114
362
264
363
183
258
451
262
354
361
265
359
362
257
450
255
451
461
170
168
460
137
290
139
136
257
451
179
258
450
355
448
356
365
116
117
115
449
447
448
355
355
450
448
449
237
165
550
234
370
69
111
113
253
451
453
177
177
175
453
253
253
450
453
451
249
541
248
247
454
175
173
453
188
266
184
363
553
323
326
238
177
175
176
454
242
545
547
243
179
258
361
180
184
188
186
264
631
329
326
328
175
253
251
453
174
175
173
454
179
451
361
258
368
70
278
370
449
450
252
254
449
344
252
538
116
114
365
364
452
253
252
450
74
274
72
73
100
99
469
158
548
166
462
165
362
183
363
181
469
158
385
387
127
81
129
126
71
276
72
70
274
366
72
276
265
362
266
360
455
458
171
456
65
280
375
284
362
181
363
118
185
264
263
183
182
262
263
261
116
178
362
118
118
116
365
362
263
183
362
182
461
459
371
110
464
470
162
465
266
360
363
268
361
451
359
357
265
264
266
362
177
451
361
179
178
180
361
362
266
362
363
360
339
539
338
340
457
369
459
112
268
266
267
363
362
116
364
178
127
198
129
81
368
115
72
70
262
451
361
357
267
188
271
363
368
70
72
276
364
362
365
116
263
264
362
183
265
264
362
263
174
454
364
176
174
176
364
114
178
116
364
176
118
362
365
363
363
266
267
188
178
177
361
179
88
283
61
286
307
388
306
221
197
201
199
202
120
271
122
121
369
112
111
110
188
363
184
271
387
156
389
157
455
247
544
541
178
362
361
364
178
176
361
177
454
177
361
176
363
366
119
271
310
311
309
225
182
262
361
357
258
262
361
182
180
182
361
362
180
258
361
182
364
454
361
176
364
176
361
178
263
265
361
362
263
357
361
265
263
182
361
357
362
182
361
263
134
135
199
130
365
118
117
116
367
370
113
368
164
461
463
108
199
133
132
194
366
363
117
365
198
81
199
79
14
79
199
81
81
82
199
14
198
79
199
14
14
82
199
200
73
276
72
71
184
264
186
185
158
99
469
154
284
20
63
285
386
385
381
151
58
59
88
283
548
237
547
241
171
544
169
458
112
114
457
367
277
51
75
275
104
280
68
372
68
104
65
280
69
70
113
370
114
364
367
365
546
544
169
245
365
115
367
114
112
367
457
369
170
458
461
459
387
158
385
154
366
115
368
365
150
221
386
152
98
151
385
153
308
390
393
391
458
544
169
460
110
112
459
369
113
112
111
369
113
369
111
370
69
370
111
372
93
92
94
9
174
454
457
364
369
110
371
459
459
110
461
170
114
174
457
364
172
459
170
110
475
553
323
554
104
372
68
107
110
170
109
461
462
464
550
165
109
170
168
461
459
110
172
112
456
174
172
173
170
458
169
460
456
458
172
459
112
457
172
459
112
174
172
457
457
456
172
459
457
174
172
456
629
630
330
332
170
458
460
461
367
114
113
112
279
282
54
19
368
115
113
367
369
367
113
112
109
371
107
110
67
54
281
64
370
70
113
368
368
276
278
70
67
280
278
69
103
102
375
104
137
86
290
84
376
160
468
466
105
373
161
466
101
97
378
379
132
199
196
198
66
67
281
64
66
280
281
67
84
85
87
290
341
340
342
537
15
56
76
78
372
280
69
370
68
280
69
372
68
66
69
280
67
280
69
66
200
82
83
14
55
58
57
17
372
68
111
69
372
107
111
68
107
371
111
110
372
371
111
107
371
369
111
110
372
369
111
371
282
279
54
281
16
50
277
51
67
70
278
71
69
280
278
370
281
280
278
67
204
203
201
200
277
275
75
73
60
64
282
54
203
206
290
204
54
53
282
60
54
64
282
281
18
17
57
58
278
276
279
71
19
52
16
17
19
50
277
16
67
281
279
278
67
54
279
281
50
54
279
71
71
67
279
278
71
54
279
67
372
104
106
107
119
271
121
363
292
206
209
207
100
99
101
379
57
85
83
18
194
197
196
199
205
133
200
204
58
85
57
18
57
56
1
14
19
59
282
53
57
17
1
55
12
23
22
8
283
59
282
19
283
17
288
58
55
56
1
57
132
198
196
193
53
59
282
60
283
17
58
59
50
53
7
19
18
85
83
84
50
54
19
279
50
53
19
54
19
17
55
52
57
18
1
17
7
52
16
19
199
134
132
133
139
138
292
141
283
59
55
17
7
50
16
51
275
274
75
73
18
14
83
57
289
290
139
86
203
206
291
290
289
290
291
206
56
52
1
16
0
13
10
89
235
473
472
475
216
384
215
145
7
51
16
52
538
537
342
340
20
2
21
12
292
141
142
139
200
136
135
134
286
11
88
287
16
56
76
15
194
199
196
132
228
227
392
226
290
85
18
84
58
85
18
288
288
17
18
58
71
50
277
279
19
50
16
7
199
198
127
81
200
137
135
136
283
17
55
19
205
204
200
290
134
133
200
205
205
136
200
134
205
290
200
136
290
84
200
137
18
84
200
290
290
137
200
136
277
51
76
16
202
197
194
133
200
202
201
204
366
74
72
117
310
225
309
223
135
200
199
82
277
276
73
71
19
7
55
53
19
52
55
7
363
264
184
183
273
131
193
198
134
200
199
135
200
202
199
201
79
80
78
15
19
279
277
50
200
133
199
202
130
131
127
198
56
14
79
15
127
131
129
198
157
467
389
468
126
80
273
125
82
200
83
84
18
84
83
200
76
15
275
16
83
14
79
57
16
51
76
52
126
190
129
128
55
52
1
56
55
17
1
52
1
56
15
14
16
56
15
1
124
188
186
271
198
130
193
132
197
202
199
133
273
131
198
126
273
125
272
190
382
384
381
95
161
163
463
164
120
272
122
271
289
206
207
290
194
132
196
193
130
134
132
199
199
81
127
82
388
219
386
306
392
390
393
308
199
135
127
130
78
80
123
273
76
16
275
277
76
78
275
15
273
131
129
190
76
277
275
51
14
15
198
79
275
76
77
78
270
271
191
272
128
190
189
272
275
78
77
273
272
190
189
191
187
125
189
272
74
366
72
274
275
51
75
76
134
133
199
200
273
126
198
80
126
81
198
80
81
79
198
80
15
80
198
79
132
130
193
131
198
273
196
193
199
133
194
197
78
15
198
273
78
80
198
15
273
80
198
78
461
371
108
109
199
198
132
130
199
82
127
135
272
273
123
125
191
271
189
272
229
474
392
471
231
471
233
230
128
125
189
187
233
231
389
471
130
198
127
199
394
392
395
393
545
243
244
245
306
388
308
391
77
78
123
273
77
273
123
272
379
98
97
96
274
77
272
275
273
275
272
77
389
390
155
387
13
86
142
89
9
92
94
8
267
271
189
191
269
271
191
270
269
267
191
271
267
188
189
271
128
272
189
125
273
126
128
190
125
126
128
273
273
190
128
125
191
190
192
272
273
190
192
131
273
131
192
193
193
195
192
273
273
195
192
272
272
190
192
273
117
115
72
366
365
115
117
366
368
276
72
366
363
183
121
181
363
271
121
184
117
366
119
363
74
73
75
274
117
74
119
366
277
71
73
50
277
50
73
51
274
277
73
275
124
271
186
184
185
183
184
264
366
115
72
368
43
40
5
821
124
271
122
272
184
183
121
363
73
274
72
276
272
123
122
124
43
791
40
821
363
266
184
264
73
51
75
277
275
77
75
274
275
76
75
77
123
125
124
272
43
717
791
821
117
363
119
118
657
658
725
821
184
271
186
188
120
77
122
272
184
271
122
124
272
77
122
123
363
181
119
118
189
188
124
271
187
188
124
189
189
271
124
272
189
272
124
187
348
352
256
350
119
363
121
181
121
271
122
184
722
717
719
821
119
271
120
121
337
625
338
539
119
74
120
366
119
366
120
271
722
791
717
821
274
77
120
272
75
77
120
274
75
274
120
74
74
274
120
366
271
366
120
274
272
271
120
274
257
353
256
450
449
450
256
353
449
254
256
450
348
254
256
449
352
449
256
353
352
348
256
449
255
257
256
450
255
450
256
254
630
239
332
240
252
538
250
452
455
541
249
247
452
541
249
455
453
452
249
455
342
538
250
344
173
453
249
455
251
452
250
249
336
625
628
542
252
452
250
251
343
341
342
537
537
344
342
343
252
344
250
538
339
337
338
539
540
340
338
539
540
539
338
542
716
41
715
820
244
245
246
543
244
245
543
545
41
716
43
820
543
245
246
247
172
458
171
170
337
335
336
625
452
249
248
250
452
541
248
249
334
627
628
336
538
541
248
452
250
538
248
452
538
540
248
541
340
540
248
538
342
538
248
250
342
340
248
538
627
335
334
333
628
545
242
244
627
625
628
336
545
542
244
628
243
546
167
245
338
540
246
340
336
542
244
338
658
655
656
820
137
86
139
290
549
239
236
238
718
719
717
820
244
545
543
542
169
245
167
546
244
336
242
628
628
336
242
334
545
243
245
546
106
371
108
373
244
542
246
338
543
542
246
244
659
820
33
656
333
629
332
334
210
211
295
294
245
247
543
544
172
173
171
456
546
545
543
245
245
544
543
546
543
247
246
541
248
541
246
247
248
540
246
541
542
540
246
338
543
540
246
542
543
541
246
540
544
455
171
247
458
455
171
544
455
173
171
249
249
247
171
455
171
247
169
544
245
544
169
247
169
546
167
460
65
103
25
284
334
629
332
630
552
553
326
238
460
169
168
167
460
170
168
169
548
549
547
237
166
165
548
241
657
721
654
820
721
720
654
820
460
461
164
168
720
719
718
820
162
470
467
465
224
390
223
388
721
719
720
820
240
241
547
237
715
41
817
820
548
243
547
546
242
243
547
241
333
331
332
629
551
236
472
235
157
468
389
387
715
718
716
820
167
166
548
243
241
165
548
237
243
546
548
167
464
465
162
163
716
717
43
820
629
329
330
631
239
237
547
549
240
334
332
630
102
377
376
100
238
323
551
553
717
716
718
820
677
678
680
819
630
242
240
334
38
816
814
5
309
225
392
390
322
475
320
473
552
631
330
326
240
239
547
630
630
242
547
240
630
545
547
242
240
242
547
241
232
473
472
235
398
477
396
476
6
26
49
3
553
552
326
555
631
328
326
555
555
552
326
631
229
471
230
473
322
473
235
475
308
394
392
309
322
232
235
473
324
478
319
554
219
220
307
221
476
317
399
478
555
328
325
327
326
328
325
555
555
327
325
556
555
556
325
554
677
31
678
819
476
319
316
318
678
31
676
819
319
409
318
478
407
478
318
409
325
324
321
554
296
297
298
211
676
26
44
819
401
478
399
317
399
476
315
317
232
236
472
234
318
317
476
478
551
323
235
475
551
238
235
323
236
238
235
551
229
473
230
320
676
31
26
819
382
384
93
9
138
141
140
292
469
158
468
160
379
99
101
97
461
164
463
462
819
679
680
677
284
281
65
280
107
109
106
371
290
86
87
84
681
815
819
683
25
20
63
284
92
11
22
0
680
684
682
819
306
388
391
305
291
206
292
289
820
33
821
814
399
314
315
397
46
815
756
685
719
721
723
821
388
153
386
152
383
147
215
216
550
236
472
551
225
313
392
226
41
821
43
5
467
465
466
159
25
2
378
24
100
105
376
102
814
5
816
821
21
12
22
11
102
375
376
377
233
467
389
157
725
723
724
821
372
104
375
374
89
91
10
92
373
465
463
161
106
109
108
371
714
41
42
817
36
32
660
817
62
285
63
20
292
13
142
10
108
371
463
373
378
20
12
2
106
373
105
374
551
549
550
236
466
465
161
159
100
379
101
377
108
105
373
161
372
373
106
374
236
232
472
235
714
715
41
817
106
374
105
102
159
105
161
466
372
371
106
373
107
371
106
372
284
65
63
25
384
214
300
215
103
102
377
375
234
165
464
163
821
657
724
725
207
136
290
205
281
66
63
65
153
387
388
385
281
64
63
66
68
280
65
66
374
104
375
102
723
724
726
816
100
377
101
102
65
103
375
104
284
103
375
65
65
104
375
280
139
86
292
289
726
724
727
816
461
371
463
108
378
2
12
23
227
471
389
231
147
216
217
218
9
8
94
382
292
141
140
294
727
724
725
816
380
97
378
24
139
290
138
136
469
379
385
99
284
281
63
65
282
285
63
62
284
285
63
282
284
282
63
281
64
282
63
62
64
281
63
282
103
102
101
377
292
207
209
140
159
105
466
160
26
6
49
44
101
103
378
24
378
23
12
380
464
163
463
465
462
164
463
163
376
160
466
105
550
234
472
236
232
470
162
234
379
99
469
100
24
23
378
380
727
725
728
816
162
232
233
470
475
551
472
235
290
85
87
288
474
473
229
320
237
234
550
236
105
374
466
376
461
109
108
168
290
288
87
287
105
373
466
374
9
296
144
10
460
461
462
164
157
231
389
233
387
154
385
153
380
23
12
8
289
86
13
287
162
470
233
467
100
158
469
160
22
23
94
8
153
154
385
98
469
100
376
377
160
105
376
100
471
470
233
232
31
44
819
815
160
159
157
468
165
166
462
163
464
234
550
165
376
469
468
160
105
374
376
102
469
160
376
100
102
374
376
375
466
160
468
159
155
226
224
390
233
467
157
159
466
159
468
467
548
165
550
237
548
460
462
167
165
163
462
464
167
166
462
548
469
154
385
158
728
725
34
816
0
92
9
8
387
156
155
389
471
232
230
473
816
35
37
818
549
237
550
236
397
398
396
476
161
108
463
373
164
108
463
161
462
163
463
464
105
108
373
106
728
34
37
816
373
465
161
466
37
34
4
816
162
465
161
163
159
465
161
162
462
165
550
548
23
97
380
24
311
225
392
309
234
470
472
232
464
234
472
550
464
470
472
234
478
319
476
318
402
399
317
401
387
153
155
154
554
475
476
319
319
478
476
554
399
317
315
400
476
478
399
398
320
319
316
476
476
478
398
477
480
478
398
401
479
478
398
480
477
478
398
479
392
308
393
394
398
478
399
401
749
681
752
815
752
683
754
815
388
221
386
219
223
390
308
388
222
310
309
223
752
681
683
815
474
473
320
476
222
223
309
307
399
398
397
476
313
314
312
397
321
319
320
475
475
322
320
321
476
473
320
475
290
204
207
205
385
153
386
388
396
395
474
476
221
149
386
219
476
474
316
320
476
317
316
315
397
476
474
315
396
476
474
397
397
315
474
313
311
394
474
396
476
315
316
474
388
152
223
224
95
96
381
382
311
397
474
313
396
397
474
311
315
474
228
316
315
313
228
474
474
471
229
473
316
474
229
320
228
474
229
316
154
156
155
387
467
159
233
162
231
471
230
229
474
394
395
396
311
312
225
310
223
221
307
222
311
313
225
312
141
292
142
294
683
685
754
815
468
159
157
467
45
44
6
815
229
471
227
231
155
390
224
388
156
227
155
389
226
390
155
227
309
390
308
223
223
388
308
307
322
473
230
232
153
387
155
388
394
474
395
392
24
103
378
25
98
99
385
379
225
390
224
226
820
657
655
654
468
158
157
160
388
152
224
153
224
225
223
390
309
394
392
311
471
467
389
233
227
231
389
156
10
89
142
91
151
150
386
152
157
156
389
231
469
158
387
468
388
387
155
390
385
151
386
153
226
313
392
228
377
284
103
375
156
158
387
154
677
679
750
815
289
290
138
139
222
221
307
220
388
153
224
155
378
285
12
20
226
390
392
225
158
156
387
157
157
468
387
158
388
152
386
221
383
216
217
147
469
99
385
154
98
154
385
99
389
390
392
227
284
377
103
378
25
103
378
284
136
207
290
138
30
677
750
815
21
2
22
12
31
3
6
815
389
227
155
390
223
388
307
221
307
221
306
219
153
151
386
152
90
11
22
92
391
388
308
390
307
388
308
306
13
287
87
90
227
471
392
389
223
225
309
390
228
474
392
229
294
208
210
211
87
13
89
86
101
379
378
377
227
228
392
229
313
474
392
228
24
2
378
23
2
25
378
20
292
206
293
208
386
305
304
303
386
219
304
306
93
9
146
91
143
294
144
296
386
306
304
305
725
723
816
724
816
34
814
821
23
96
380
97
143
294
212
140
10
13
142
89
101
377
378
103
24
97
378
101
380
379
378
97
11
12
22
8
283
59
61
282
284
20
378
25
90
21
22
11
384
214
213
300
284
285
378
20
292
86
142
13
380
8
94
23
215
302
300
383
88
59
61
283
11
21
88
90
289
206
292
207
11
12
286
21
21
12
286
285
294
208
209
292
13
86
87
287
286
285
61
21
61
20
285
62
41
821
5
814
13
289
292
86
4
33
32
814
96
380
381
382
38
37
818
816
143
141
144
294
90
287
11
13
294
208
295
210
282
60
61
62
12
2
22
23
296
91
146
9
91
296
144
9
291
206
293
292
296
9
146
93
286
21
61
88
282
59
61
60
90
287
88
11
12
285
21
20
20
61
285
21
287
90
88
87
286
21
88
11
288
85
88
58
289
290
87
287
289
86
87
290
287
86
87
289
0
8
22
92
4
34
33
814
33
821
34
658
288
287
88
87
286
287
88
288
286
288
88
283
58
283
88
288
282
285
61
283
62
285
61
282
286
283
61
285
294
208
211
209
90
13
89
87
34
725
658
821
292
207
140
138
661
817
660
714
11
8
22
0
296
294
144
10
382
148
93
384
217
386
302
383
296
211
298
212
138
289
292
207
292
208
209
206
721
724
723
821
11
90
0
92
11
13
0
90
294
292
209
140
89
90
0
13
294
292
142
10
95
148
93
382
214
143
145
296
292
139
142
86
9
382
94
93
304
303
302
386
95
148
382
384
35
814
36
818
294
292
293
208
0
89
10
90
92
90
10
89
0
90
10
92
22
8
94
92
9
91
93
92
383
302
300
301
31
44
26
819
98
96
381
151
297
211
295
210
33
41
814
820
9
10
144
91
658
721
821
657
209
294
212
211
661
817
36
660
384
296
93
9
384
300
213
298
143
212
213
214
297
211
296
294
297
294
295
211
294
293
295
208
296
294
212
143
301
383
299
300
296
211
212
294
149
220
218
219
215
383
300
384
298
211
213
212
141
294
143
140
209
140
212
294
721
719
820
821
385
98
381
151
144
91
146
296
35
814
818
4
96
379
381
380
379
98
381
385
5
791
722
821
379
96
381
98
142
10
144
294
10
92
9
0
300
383
299
384
211
297
298
210
91
92
9
10
142
91
144
10
144
296
145
143
93
384
146
296
816
38
814
818
384
147
215
383
384
216
215
147
93
148
146
384
382
8
94
380
382
95
94
93
382
96
94
95
380
96
94
382
380
23
94
96
383
149
217
386
300
214
213
215
304
386
302
217
145
384
215
214
214
296
145
384
146
384
145
296
36
814
4
32
41
717
43
821
149
219
217
386
714
42
36
817
147
218
217
149
731
37
35
818
146
148
147
384
216
145
147
384
146
384
147
145
304
386
217
219
218
219
217
149
386
150
383
149
145
214
215
216
383
217
215
302
383
216
215
217
147
149
383
148
147
148
383
384
149
150
383
148
151
386
383
381
151
150
383
386
95
148
383
150
384
95
383
381
384
148
383
95
95
151
383
381
95
150
383
151
302
303
301
386
302
386
301
383
299
297
298
384
299
384
298
300
530
533
616
528
297
296
298
384
235
321
475
323
298
296
213
384
214
384
213
296
214
296
213
143
298
212
213
296
143
296
213
212
CELL_TYPES 2413
10
10
10
10
10
10
10
10
10
10
10
10
10
10
10
10
10
10
10
10
10
10
10
10
10
10
10
10
10
10
10
10
10
10
10
10
10
10
10
10
10
10
10
10
10
10
10
10
10
10
10
10
10
10
10
10
10
10
10
10
10
10
10
10
10
10
10
10
10
10
10
10
10
10
10
10
10
10
10
10
10
10
10
10
10
10
10
10
10
10
10
10
10
10
10
10
10
10
10
10
10
10
10
10
10
10
10
10
10
10
10
10
10
10
10
10
10
10
10
10
10
10
10
10
10
10
10
10
10
10
10
10
10
10
10
10
10
10
10
10
10
10
10
10
10
10
10
10
10
10
10
10
10
10
10
10
10
10
10
10
10
10
10
10
10
10
10
10
10
10
10
10
10
10
10
10
10
10
10
10
10
10
10
10
10
10
10
10
10
10
10
10
10
10
10
10
10
10
10
10
10
10
10
10
10
10
10
10
10
10
10
10
10
10
10
10
10
10
10
10
10
10
10
10
10
10
10
10
10
10
10
10
10
10
10
10
10
10
10
10
10
10
10
10
10
10
10
10
10
10
10
10
10
10
10
10
10
10
10
10
10
10
10
10
10
10
10
10
10
10
10
10
10
10
10
10
10
10
10
10
10
10
10
10
10
10
10
10
10
10
10
10
10
10
10
10
10
10
10
10
10
10
10
10
10
10
10
10
10
10
10
10
10
10
10
10
10
10
10
10
10
10
10
10
10
10
10
10
10
10
10
10
10
10
10
10
10
10
10
10
10
10
10
10
10
10
10
10
10
10
10
10
10
10
10
10
10
10
10
10
10
10
10
10
10
10
10
10
10
10
10
10
10
10
10
10
10
10
10
10
10
10
10
10
10
10
10
10
10
10
10
10
10
10
10
10
10
10
10
10
10
10
10
10
10
10
10
10
10
10
10
10
10
10
10
10
10
10
10
10
10
10
10
10
10
10
10
10
10
10
10
10
10
10
10
10
10
10
10
10
10
10
10
10
10
10
10
10
10
10
10
10
10
10
10
10
10
10
10
10
10
10
10
10
10
10
10
10
10
10
10
10
10
10
10
10
10
10
10
10
10
10
10
10
10
10
10
10
10
10
10
10
10
10
10
10
10
10
10
10
10
10
10
10
10
10
10
10
10
10
10
10
10
10
10
10
10
10
10
10
10
10
10
10
10
10
10
10
10
10
10
10
10
10
10
10
10
10
10
10
10
10
10
10
10
10
10
10
10
10
10
10
10
10
10
10
10
10
10
10
10
10
10
10
10
10
10
10
10
10
10
10
10
10
10
10
10
10
10
10
10
10
10
10
10
10
10
10
10
10
10
10
10
10
10
10
10
10
10
10
10
10
10
10
10
10
10
10
10
10
10
10
10
10
10
10
10
10
10
10
10
10
10
10
10
10
10
10
10
10
10
10
10
10
10
10
10
10
10
10
10
10
10
10
10
10
10
10
10
10
10
10
10
10
10
10
10
10
10
10
10
10
10
10
10
10
10
10
10
10
10
10
10
10
10
10
10
10
10
10
10
10
10
10
10
10
10
10
10
10
10
10
10
10
10
10
10
10
10
10
10
10
10
10
10
10
10
10
10
10
10
10
10
10
10
10
10
10
10
10
10
10
10
10
10
10
10
10
10
10
10
10
10
10
10
10
10
10
10
10
10
10
10
10
10
10
10
10
10
10
10
10
10
10
10
10
10
10
10
10
10
10
10
10
10
10
10
10
10
10
10
10
10
10
10
10
10
10
10
10
10
10
10
10
10
10
10
10
10
10
10
10
10
10
10
10
10
10
10
10
10
10
10
10
10
10
10
10
10
10
10
10
10
10
10
10
10
10
10
10
10
10
10
10
10
10
10
10
10
10
10
10
10
10
10
10
10
10
10
10
10
10
10
10
10
10
10
10
10
10
10
10
10
10
10
10
10
10
10
10
10
10
10
10
10
10
10
10
10
10
10
10
10
10
10
10
10
10
10
10
10
10
10
10
10
10
10
10
10
10
10
10
10
10
10
10
10
10
10
10
10
10
10
10
10
10
10
10
10
10
10
10
10
10
10
10
10
10
10
10
10
10
10
10
10
10
10
10
10
10
10
10
10
10
10
10
10
10
10
10
10
10
10
10
10
10
10
10
10
10
10
10
10
10
10
10
10
10
10
10
10
10
10
10
10
10
10
10
10
10
10
10
10
10
10
10
10
10
10
10
10
10
10
10
10
10
10
10
10
10
10
10
10
10
10
10
10
10
10
10
10
10
10
10
10
10
10
10
10
10
10
10
10
10
10
10
10
10
10
10
10
10
10
10
10
10
10
10
10
10
10
10
10
10
10
10
10
10
10
10
10
10
10
10
10
10
10
10
10
10
10
10
10
10
10
10
10
10
10
10
10
10
10
10
10
10
10
10
10
10
10
10
10
10
10
10
10
10
10
10
10
10
10
10
10
10
10
10
10
10
10
10
10
10
10
10
10
10
10
10
10
10
10
10
10
10
10
10
10
10
10
10
10
10
10
10
10
10
10
10
10
10
10
10
10
10
10
10
10
10
10
10
10
10
10
10
10
10
10
10
10
10
10
10
10
10
10
10
10
10
10
10
10
10
10
10
10
10
10
10
10
10
10
10
10
10
10
10
10
10
10
10
10
10
10
10
10
10
10
10
10
10
10
10
10
10
10
10
10
10
10
10
10
10
10
10
10
10
10
10
10
10
10
10
10
10
10
10
10
10
10
10
10
10
10
10
10
10
10
10
10
10
10
10
10
10
10
10
10
10
10
10
10
10
10
10
10
10
10
10
10
10
10
10
10
10
10
10
10
10
10
10
10
10
10
10
10
10
10
10
10
10
10
10
10
10
10
10
10
10
10
10
10
10
10
10
10
10
10
10
10
10
10
10
10
10
10
10
10
10
10
10
10
10
10
10
10
10
10
10
10
10
10
10
10
10
10
10
10
10
10
10
10
10
10
10
10
10
10
10
10
10
10
10
10
10
10
10
10
10
10
10
10
10
10
10
10
10
10
10
10
10
10
10
10
10
10
10
10
10
10
10
10
10
10
10
10
10
10
10
10
10
10
10
10
10
10
10
10
10
10
10
10
10
10
10
10
10
10
10
10
10
10
10
10
10
10
10
10
10
10
10
10
10
10
10
10
10
10
10
10
10
10
10
10
10
10
10
10
10
10
10
10
10
10
10
10
10
10
10
10
10
10
10
10
10
10
10
10
10
10
10
10
10
10
10
10
10
10
10
10
10
10
10
10
10
10
10
10
10
10
10
10
10
10
10
10
10
10
10
10
10
10
10
10
10
10
10
10
10
10
10
10
10
10
10
10
10
10
10
10
10
10
10
10
10
10
10
10
10
10
10
10
10
10
10
10
10
10
10
10
10
10
10
10
10
10
10
10
10
10
10
10
10
10
10
10
10
10
10
10
10
10
10
10
10
10
10
10
10
10
10
10
10
10
10
10
10
10
10
10
10
10
10
10
10
10
10
10
10
10
10
10
10
10
10
10
10
10
10
10
10
10
10
10
10
10
10
10
10
10
10
10
10
10
10
10
10
10
10
10
10
10
10
10
10
10
10
10
10
10
10
10
10
10
10
10
10
10
10
10
10
10
10
10
10
10
10
10
10
10
10
10
10
10
10
10
10
10
10
10
10
10
10
10
10
10
10
10
10
10
10
10
10
10
10
10
10
10
10
10
10
10
10
10
10
10
10
10
10
10
10
10
10
10
10
10
10
10
10
10
10
10
10
10
10
10
10
10
10
10
10
10
10
10
10
10
10
10
10
10
10
10
10
10
10
10
10
10
10
10
10
10
10
10
10
10
10
10
10
10
10
10
10
10
10
10
10
10
10
10
10
10
10
10
10
10
10
10
10
10
10
10
10
10
10
10
10
10
10
10
10
10
10
10
10
10
10
10
10
10
10
10
10
10
10
10
10
10
10
10
10
10
10
10
10
10
10
10
10
10
10
10
10
10
10
10
10
10
10
10
10
10
10
10
10
10
10
10
10
10
10
10
10
10
10
10
10
10
10
10
10
10
10
10
10
10
10
10
10
10
10
10
10
10
10
10
10
10
10
10
10
10
10
10
10
10
10
10
10
10
10
10
10
10
10
10
10
10
10
10
10
10
10
10
10
10
10
10
10
10
10
10
10
10
10
10
10
10
10
10
10
10
10
10
10
10
10
10
10
10
10
10
10
10
10
10
10
10
10
10
10
10
10
10
10
10
10
10
10
10
10
10
10
10
10
10
10
10
10
10
10
10
10
10
10
10
10
10
10
10
10
10
10
10
10
10
10
10
10
10
10
10
10
10
10
10
10
10
10
10
10
10
10
10
10
10
10
10
10
10
10
10
10
10
10
10
10
10
10
10
10
10
10
10
10
10
10
10
10
10
10
10
10
10
10
10
10
10
10
10
10
10
10
10
10
10
10
10
10
10
10
10
10
10
10
10
10
10
10
10
10
10
10
10
10
10
10
10
10
10
10
10
10
10
10
10
10
10
10
10
10
10
10
10
10
10
10
10
10
10
10
10
10
10
10
10
10
10
10
10
10
10
10
10
10
10
10
10
10
10
10
10
10
10
10
10
10
10
10
10
10
10
10
10
10
10
10
10
10
10
10
10
10
10
10
10
10
10
10
10
10
10
10
10
10
10
10
10
10
10
10
10
10
10
10
10
10
10
10
10
10
10
10
10
10
10
10
10
10
10
10
10
10
10
10
10
10
10
10
10
10
10
10
10
10
10
10
10
10
10
10
10
10
10
10
10
10
10
10
10
10
10
10
10
10
10
10
10
10
10
10
10
10
10
10
10
10
10
10
10
10
10
10
10
10
10
10
10
10
10
10
10
10
10
10
10
10
10
10
10
10
10
10
10
10
10
10
10
10
10
10
10
10
10
10
10
10
10
10
10
10
10
10
10
10
10
10
10
10
10
10
10
10
10
10
10
10
10
10
10
10
10
10
10
10
10
10
10
10
10
10
10
10
10
10
10
10
10
10
10
10
10
10
10
10
10
10
10
10
10
10
10
10
10
10
10
10
10
10
10
10
10
10
10
10
10
10
10
10
10
10
10
10
10
10
10
10
10
10
10
10
10
10
10
10
10
10
10
10
10
10
10
10
10
10
10
10
10
10
10
10
10
10
10
10
10
10
10
10
10
10
10
10
10
10
10
10
10
10
10
10
10
10
10
10
10
10
10
10
10
10
10
10
10
10
10
10
10
10
10
10
10
10
10
10
10
10
10
10
10
10
10
10
10
10
10
10
10
10
10
10
10
10
10
10
10
10
10
10
10
10
10
10
10
10
10
10
10
10
10
10
10
10
10
10
10
10
10
10
10
10
10
10
10
10
10
10
10
10
10
10
10
10
10
10
10
10
10
10
10
10
10
10
10
10
10
10
10
10
10
10
10
10
10
10
10
10
10
10
10
10
10
