# Blender 5.0.1
# www.blender.org
o T4_OriginalTopo_Triangle
v 0.032534 -0.000830 -0.001753
v 0.032358 -0.000709 0.001810
v 0.031984 0.000750 -0.001334
v 0.017215 0.007094 0.003972
v 0.017107 0.007127 -0.004019
v 0.016513 0.006424 -0.003938
v 0.016809 0.006284 0.003983
v 0.032078 0.000599 0.001685
v 0.031913 -0.000427 -0.001992
v 0.032155 -0.000830 -0.002670
v 0.032874 -0.001192 -0.002058
v 0.032541 -0.000700 -0.001128
v 0.031738 -0.000083 -0.001134
v 0.033113 -0.001186 -0.001228
v 0.032688 -0.001065 0.002135
v 0.032014 -0.000733 0.002699
v 0.031810 -0.000357 0.002031
v 0.032418 -0.000621 0.001241
v 0.032989 -0.001108 0.001369
v 0.031668 -0.000058 0.001250
v 0.032029 0.000776 -0.000850
v 0.032767 0.000207 -0.001053
v 0.032479 0.000286 -0.001750
v 0.031899 0.000591 -0.002224
v 0.031585 0.000996 -0.001496
v 0.031484 0.001155 -0.000850
v 0.017708 0.006872 0.004007
v 0.017756 0.007076 0.003290
v 0.017125 0.007296 0.003433
v 0.016780 0.007414 0.003528
v 0.016994 0.007111 0.004236
v 0.017603 0.006802 0.004390
v 0.017545 0.006918 -0.004086
v 0.017425 0.006864 -0.004434
v 0.016905 0.007147 -0.004246
v 0.017057 0.007313 -0.003475
v 0.017655 0.007072 -0.003428
v 0.016756 0.007421 -0.003544
v 0.016478 0.006652 -0.003240
v 0.015461 0.007012 -0.003495
v 0.015777 0.006543 -0.004623
v 0.017135 0.006121 -0.004060
v 0.017315 0.006315 -0.003180
v 0.016784 0.005956 -0.005107
v 0.017473 0.005988 0.004024
v 0.017088 0.005816 0.005124
v 0.015983 0.006401 0.004798
v 0.015463 0.006972 0.003624
v 0.016603 0.006586 0.003285
v 0.017525 0.006248 0.003127
v 0.031655 0.000862 0.001835
v 0.031887 0.000522 0.002451
v 0.032449 0.000241 0.002001
v 0.032151 0.000651 0.001206
v 0.031585 0.001054 0.001187
v 0.032760 0.000153 0.001374
v 0.032869 -0.000190 0.002347
v 0.033303 -0.000322 0.001550
v 0.033423 -0.000300 0.000612
v 0.032857 0.000173 0.000570
v 0.032191 0.000682 0.000522
v 0.032848 0.000199 -0.000246
v 0.032145 0.000728 -0.000196
v 0.031514 0.001179 -0.000185
v 0.031553 0.001132 0.000508
v 0.030942 0.001556 -0.000221
v 0.030950 0.001531 0.000527
v 0.030999 0.001432 0.001279
v 0.030360 0.001904 0.000526
v 0.030400 0.001801 0.001358
v 0.030423 0.001565 0.002182
v 0.031072 0.001199 0.002039
v 0.030468 0.001254 0.002956
v 0.031212 0.000867 0.002749
v 0.030546 0.000965 0.003623
v 0.031374 0.000544 0.003349
v 0.032148 0.000154 0.002954
v 0.031493 0.000330 0.003753
v 0.032359 -0.000124 0.003305
v 0.033164 -0.000522 0.002627
v 0.032502 -0.000311 0.003541
v 0.033374 -0.000760 0.002816
v 0.033925 -0.000923 0.001764
v 0.033659 -0.000655 0.001671
v 0.034037 -0.000854 0.000656
v 0.033773 -0.000603 0.000634
v 0.034040 -0.000845 -0.000373
v 0.033776 -0.000593 -0.000339
v 0.033429 -0.000290 -0.000302
v 0.033717 -0.000648 -0.001409
v 0.033341 -0.000301 -0.001270
v 0.033271 -0.000546 -0.002433
v 0.032948 -0.000183 -0.002140
v 0.032463 -0.000163 -0.003193
v 0.032208 0.000170 -0.002784
v 0.031578 0.000308 -0.003649
v 0.031424 0.000570 -0.003191
v 0.031229 0.000937 -0.002546
v 0.030606 0.000976 -0.003496
v 0.030509 0.001299 -0.002789
v 0.030442 0.001613 -0.001964
v 0.031067 0.001278 -0.001765
v 0.030427 0.001815 -0.001134
v 0.030985 0.001476 -0.000988
v 0.030381 0.001906 -0.000302
v 0.029784 0.002179 -0.001216
v 0.029770 0.002269 -0.000375
v 0.029757 0.002269 0.000503
v 0.029109 0.002660 -0.000408
v 0.029103 0.002660 0.000473
v 0.029086 0.002577 0.001347
v 0.029760 0.002169 0.001371
v 0.029024 0.002375 0.002204
v 0.029730 0.001955 0.002220
v 0.028937 0.002106 0.003047
v 0.029696 0.001670 0.003044
v 0.028879 0.001840 0.003826
v 0.029697 0.001400 0.003770
v 0.028857 0.001680 0.004304
v 0.029709 0.001232 0.004238
v 0.030607 0.000776 0.004067
v 0.029718 0.001128 0.004529
v 0.030654 0.000648 0.004356
v 0.031588 0.000177 0.004030
v 0.030693 0.000533 0.004625
v 0.031670 0.000038 0.004293
v 0.032633 -0.000486 0.003774
v 0.033564 -0.000977 0.002988
v 0.031708 -0.000137 0.004503
v 0.032712 -0.000689 0.003963
v 0.033695 -0.001221 0.003132
v 0.032685 -0.000956 0.004069
v 0.033700 -0.001518 0.003219
v 0.034286 -0.001736 0.001875
v 0.034272 -0.001451 0.001867
v 0.034156 -0.001176 0.001832
v 0.034330 -0.001387 0.000666
v 0.034233 -0.001117 0.000668
v 0.034335 -0.001366 -0.000403
v 0.034232 -0.001097 -0.000394
v 0.034282 -0.001440 -0.001599
v 0.034181 -0.001160 -0.001565
v 0.033989 -0.000915 -0.001502
v 0.033697 -0.001028 -0.002784
v 0.033499 -0.000804 -0.002625
v 0.032771 -0.000551 -0.003657
v 0.032623 -0.000362 -0.003425
v 0.031770 -0.000002 -0.004187
v 0.031678 0.000149 -0.003921
v 0.030788 0.000512 -0.004540
v 0.030741 0.000635 -0.004262
v 0.030685 0.000766 -0.003972
v 0.029805 0.001102 -0.004470
v 0.029795 0.001208 -0.004175
v 0.029777 0.001394 -0.003664
v 0.028926 0.001661 -0.004263
v 0.028948 0.001831 -0.003756
v 0.028987 0.002105 -0.002990
v 0.029750 0.001691 -0.002928
v 0.029055 0.002385 -0.002133
v 0.029761 0.001982 -0.002076
v 0.029103 0.002579 -0.001267
v 0.028309 0.002794 -0.002159
v 0.028371 0.002981 -0.001299
v 0.028389 0.003056 -0.000431
v 0.027598 0.003368 -0.001322
v 0.027624 0.003444 -0.000454
v 0.027626 0.003446 0.000416
v 0.028388 0.003057 0.000443
v 0.027601 0.003370 0.001283
v 0.028364 0.002980 0.001315
v 0.027529 0.003194 0.002138
v 0.028288 0.002788 0.002172
v 0.027411 0.002937 0.002985
v 0.028180 0.002527 0.003021
v 0.027301 0.002673 0.003793
v 0.028087 0.002261 0.003823
v 0.027246 0.002517 0.004291
v 0.028042 0.002104 0.004306
v 0.027220 0.002431 0.004568
v 0.028020 0.002015 0.004585
v 0.028845 0.001585 0.004589
v 0.027997 0.001934 0.004844
v 0.028831 0.001499 0.004854
v 0.029730 0.001028 0.004807
v 0.028797 0.001377 0.005080
v 0.029714 0.000898 0.005029
v 0.030703 0.000387 0.004853
v 0.029632 0.000671 0.005151
v 0.030634 0.000153 0.004976
v 0.031655 -0.000386 0.004616
v 0.030519 -0.000126 0.005009
v 0.031549 -0.000669 0.004652
v 0.032587 -0.001244 0.004097
v 0.033613 -0.001845 0.003247
v 0.031411 -0.000939 0.004596
v 0.032438 -0.001491 0.004025
v 0.033464 -0.002053 0.003157
v 0.032210 -0.001097 0.003328
v 0.033041 -0.001517 0.002613
v 0.033505 -0.001604 0.001569
v 0.034051 -0.002168 0.001794
v 0.034217 -0.001995 0.001848
v 0.034123 -0.002036 0.000610
v 0.034287 -0.001866 0.000637
v 0.034346 -0.001642 0.000658
v 0.034294 -0.001854 -0.000396
v 0.034356 -0.001622 -0.000403
v 0.034243 -0.001957 -0.001577
v 0.034303 -0.001708 -0.001602
v 0.033791 -0.001929 -0.003023
v 0.033860 -0.001590 -0.003004
v 0.033840 -0.001283 -0.002923
v 0.032854 -0.001025 -0.003967
v 0.032867 -0.000756 -0.003854
v 0.031795 -0.000423 -0.004554
v 0.031833 -0.000166 -0.004422
v 0.030755 0.000144 -0.004921
v 0.030819 0.000381 -0.004797
v 0.029745 0.000688 -0.005131
v 0.029817 0.000896 -0.005000
v 0.029817 0.001000 -0.004748
v 0.028879 0.001378 -0.005058
v 0.028898 0.001476 -0.004820
v 0.028912 0.001564 -0.004552
v 0.028051 0.001926 -0.004824
v 0.028074 0.002007 -0.004561
v 0.028097 0.002097 -0.004277
v 0.027251 0.002432 -0.004545
v 0.027281 0.002518 -0.004262
v 0.027332 0.002663 -0.003788
v 0.028136 0.002257 -0.003779
v 0.027422 0.002916 -0.003028
v 0.028210 0.002518 -0.003009
v 0.027527 0.003186 -0.002180
v 0.026624 0.003308 -0.003051
v 0.026736 0.003581 -0.002206
v 0.026810 0.003767 -0.001348
v 0.025925 0.003958 -0.002227
v 0.025998 0.004146 -0.001372
v 0.026026 0.004219 -0.000502
v 0.026836 0.003838 -0.000479
v 0.026029 0.004221 0.000366
v 0.026840 0.003841 0.000391
v 0.026010 0.004161 0.001229
v 0.026819 0.003773 0.001256
v 0.025948 0.003999 0.002074
v 0.026752 0.003607 0.002106
v 0.025845 0.003741 0.002903
v 0.026634 0.003346 0.002944
v 0.025735 0.003472 0.003710
v 0.026519 0.003081 0.003753
v 0.025665 0.003303 0.004243
v 0.026455 0.002918 0.004270
v 0.025631 0.003215 0.004529
v 0.026424 0.002830 0.004554
v 0.025597 0.003132 0.004802
v 0.026393 0.002749 0.004820
v 0.027194 0.002351 0.004833
v 0.026354 0.002654 0.005064
v 0.027155 0.002249 0.005071
v 0.027958 0.001821 0.005076
v 0.027061 0.002042 0.005190
v 0.027865 0.001605 0.005193
v 0.028707 0.001159 0.005195
v 0.027740 0.001338 0.005218
v 0.028581 0.000895 0.005216
v 0.029515 0.000395 0.005183
v 0.028433 0.000586 0.005137
v 0.029369 0.000100 0.005104
v 0.030372 -0.000414 0.004934
v 0.029424 0.000366 0.004226
v 0.030350 -0.000119 0.004093
v 0.031294 -0.000606 0.003795
v 0.030325 0.000170 0.003299
v 0.031190 -0.000293 0.003072
v 0.030294 0.000511 0.002443
v 0.031064 0.000077 0.002283
v 0.030235 0.000841 0.001490
v 0.030933 0.000419 0.001376
v 0.030165 0.001014 0.000482
v 0.030898 0.000545 0.000473
v 0.031669 0.000014 0.000463
v 0.032432 -0.000547 0.000473
v 0.030900 0.000549 -0.000379
v 0.031694 0.000001 -0.000350
v 0.032468 -0.000570 -0.000341
v 0.033091 -0.001087 -0.000350
v 0.033051 -0.001062 0.000507
v 0.033621 -0.001554 -0.000364
v 0.033600 -0.001543 0.000551
v 0.034124 -0.002030 -0.000382
v 0.033585 -0.001629 -0.001369
v 0.034076 -0.002126 -0.001533
v 0.033187 -0.001588 -0.002457
v 0.033625 -0.002125 -0.002957
v 0.032353 -0.001173 -0.003237
v 0.032600 -0.001582 -0.003919
v 0.032759 -0.001327 -0.003995
v 0.031539 -0.001005 -0.004518
v 0.031691 -0.000721 -0.004594
v 0.030485 -0.000471 -0.004913
v 0.030640 -0.000153 -0.004970
v 0.029455 0.000055 -0.005099
v 0.029622 0.000392 -0.005177
v 0.028486 0.000564 -0.005137
v 0.028659 0.000907 -0.005220
v 0.028795 0.001176 -0.005176
v 0.027793 0.001358 -0.005215
v 0.027922 0.001627 -0.005175
v 0.028018 0.001834 -0.005061
v 0.027092 0.002054 -0.005185
v 0.027187 0.002262 -0.005062
v 0.027222 0.002352 -0.004812
v 0.026364 0.002666 -0.005065
v 0.026402 0.002757 -0.004814
v 0.026436 0.002838 -0.004542
v 0.025591 0.003139 -0.004820
v 0.025626 0.003219 -0.004553
v 0.025662 0.003303 -0.004270
v 0.026471 0.002925 -0.004251
v 0.025722 0.003443 -0.003813
v 0.026526 0.003063 -0.003799
v 0.025819 0.003685 -0.003074
v 0.024916 0.003810 -0.003832
v 0.025008 0.004050 -0.003099
v 0.025105 0.004327 -0.002253
v 0.024189 0.004408 -0.003127
v 0.024281 0.004689 -0.002284
v 0.024344 0.004881 -0.001420
v 0.025174 0.004520 -0.001397
v 0.024376 0.004965 -0.000547
v 0.025203 0.004594 -0.000526
v 0.024382 0.004970 0.000325
v 0.025208 0.004598 0.000344
v 0.024362 0.004904 0.001185
v 0.025190 0.004538 0.001205
v 0.024315 0.004753 0.002026
v 0.025135 0.004381 0.002047
v 0.024238 0.004504 0.002836
v 0.025046 0.004124 0.002870
v 0.024150 0.004245 0.003602
v 0.024945 0.003859 0.003658
v 0.024083 0.004071 0.004155
v 0.024876 0.003687 0.004201
v 0.024043 0.003973 0.004481
v 0.024839 0.003597 0.004502
v 0.024006 0.003886 0.004779
v 0.024804 0.003513 0.004784
v 0.023965 0.003792 0.005056
v 0.024768 0.003429 0.005051
v 0.025559 0.003042 0.005058
v 0.024666 0.003207 0.005184
v 0.025462 0.002829 0.005175
v 0.026261 0.002449 0.005185
v 0.025339 0.002562 0.005221
v 0.026137 0.002180 0.005220
v 0.026937 0.001773 0.005217
v 0.025975 0.001829 0.005142
v 0.026778 0.001440 0.005141
v 0.027589 0.001022 0.005139
v 0.026904 0.001687 0.004256
v 0.027714 0.001270 0.004262
v 0.028553 0.000833 0.004264
v 0.027831 0.001538 0.003386
v 0.028648 0.001095 0.003397
v 0.029470 0.000638 0.003371
v 0.028736 0.001399 0.002507
v 0.029509 0.000951 0.002496
v 0.028800 0.001666 0.001556
v 0.029527 0.001244 0.001540
v 0.028817 0.001820 0.000515
v 0.029500 0.001416 0.000493
v 0.028826 0.001808 -0.000573
v 0.029523 0.001389 -0.000584
v 0.030192 0.000996 -0.000489
v 0.029583 0.001197 -0.001620
v 0.030334 0.000775 -0.001530
v 0.031005 0.000388 -0.001313
v 0.030403 0.000445 -0.002455
v 0.031199 0.000005 -0.002246
v 0.030429 0.000113 -0.003295
v 0.031325 -0.000372 -0.003052
v 0.030460 -0.000177 -0.004085
v 0.031422 -0.000677 -0.003751
v 0.029535 0.000594 -0.003399
v 0.029501 0.000322 -0.004238
v 0.028678 0.001075 -0.003414
v 0.028593 0.000816 -0.004277
v 0.027854 0.001527 -0.003391
v 0.027742 0.001265 -0.004269
v 0.027622 0.001018 -0.005140
v 0.026920 0.001686 -0.004260
v 0.026794 0.001435 -0.005141
v 0.026959 0.001779 -0.005230
v 0.025979 0.001835 -0.005142
v 0.026140 0.002178 -0.005219
v 0.026269 0.002459 -0.005184
v 0.025329 0.002565 -0.005225
v 0.025456 0.002842 -0.005192
v 0.025550 0.003047 -0.005068
v 0.024649 0.003207 -0.005189
v 0.024745 0.003414 -0.005069
v 0.024788 0.003509 -0.004827
v 0.023935 0.003788 -0.005071
v 0.023978 0.003882 -0.004831
v 0.024013 0.003959 -0.004566
v 0.024822 0.003588 -0.004564
v 0.024050 0.004042 -0.004287
v 0.024858 0.003670 -0.004290
v 0.024105 0.004172 -0.003854
v 0.023239 0.004408 -0.004281
v 0.023288 0.004528 -0.003872
v 0.023364 0.004752 -0.003154
v 0.022475 0.004878 -0.003882
v 0.022540 0.005093 -0.003181
v 0.022614 0.005370 -0.002329
v 0.023448 0.005031 -0.002307
v 0.022669 0.005566 -0.001457
v 0.023507 0.005224 -0.001440
v 0.022695 0.005653 -0.000573
v 0.023536 0.005310 -0.000562
v 0.022703 0.005669 0.000304
v 0.023543 0.005321 0.000310
v 0.022684 0.005600 0.001167
v 0.023524 0.005254 0.001170
v 0.022646 0.005452 0.002008
v 0.023479 0.005108 0.002008
v 0.022595 0.005211 0.002814
v 0.023417 0.004867 0.002811
v 0.022545 0.004963 0.003560
v 0.023351 0.004613 0.003564
v 0.022491 0.004784 0.004124
v 0.023289 0.004433 0.004129
v 0.022448 0.004684 0.004459
v 0.023247 0.004332 0.004467
v 0.022407 0.004594 0.004768
v 0.023208 0.004242 0.004771
v 0.022359 0.004492 0.005055
v 0.023164 0.004146 0.005054
v 0.022252 0.004250 0.005193
v 0.023060 0.003915 0.005183
v 0.023864 0.003567 0.005170
v 0.022929 0.003623 0.005209
v 0.023735 0.003283 0.005202
v 0.024539 0.002929 0.005222
v 0.023588 0.002956 0.005141
v 0.024379 0.002584 0.005141
v 0.025175 0.002207 0.005141
v 0.024510 0.002842 0.004237
v 0.025307 0.002467 0.004245
v 0.026105 0.002087 0.004251
v 0.025443 0.002746 0.003341
v 0.026236 0.002360 0.003352
v 0.027030 0.001956 0.003365
v 0.026377 0.002657 0.002444
v 0.027162 0.002250 0.002462
v 0.027950 0.001836 0.002490
v 0.027270 0.002495 0.001512
v 0.028045 0.002090 0.001542
v 0.027322 0.002613 0.000505
v 0.028091 0.002224 0.000522
v 0.027327 0.002611 -0.000527
v 0.028097 0.002220 -0.000545
v 0.027284 0.002495 -0.001530
v 0.028065 0.002090 -0.001561
v 0.028827 0.001654 -0.001600
v 0.027968 0.001822 -0.002499
v 0.028765 0.001376 -0.002533
v 0.029571 0.000904 -0.002540
v 0.027174 0.002240 -0.002471
v 0.027043 0.001949 -0.003371
v 0.026383 0.002651 -0.002456
v 0.026239 0.002356 -0.003360
v 0.026109 0.002091 -0.004255
v 0.025437 0.002745 -0.003351
v 0.025301 0.002476 -0.004251
v 0.025171 0.002218 -0.005142
v 0.024494 0.002853 -0.004246
v 0.024365 0.002591 -0.005141
v 0.024524 0.002935 -0.005223
v 0.023559 0.002965 -0.005141
v 0.023718 0.003314 -0.005231
v 0.023840 0.003580 -0.005187
v 0.022910 0.003683 -0.005228
v 0.023030 0.003950 -0.005193
v 0.023122 0.004155 -0.005069
v 0.022222 0.004299 -0.005177
v 0.022316 0.004505 -0.005064
v 0.022361 0.004603 -0.004830
v 0.023166 0.004249 -0.004829
v 0.022396 0.004680 -0.004565
v 0.023202 0.004326 -0.004563
v 0.022430 0.004760 -0.004288
v 0.021580 0.005034 -0.004571
v 0.021614 0.005112 -0.004296
v 0.021658 0.005228 -0.003896
v 0.020790 0.005466 -0.004303
v 0.020834 0.005575 -0.003918
v 0.020890 0.005777 -0.003241
v 0.021715 0.005436 -0.003208
v 0.020949 0.006047 -0.002382
v 0.021782 0.005709 -0.002353
v 0.020998 0.006252 -0.001493
v 0.021833 0.005909 -0.001474
v 0.021017 0.006340 -0.000587
v 0.021855 0.005998 -0.000581
v 0.021023 0.006349 0.000318
v 0.021861 0.006012 0.000307
v 0.021021 0.006282 0.001211
v 0.021849 0.005943 0.001181
v 0.021000 0.006120 0.002077
v 0.021822 0.005791 0.002033
v 0.020960 0.005870 0.002892
v 0.021777 0.005545 0.002843
v 0.020917 0.005636 0.003620
v 0.021733 0.005303 0.003582
v 0.020875 0.005478 0.004142
v 0.021685 0.005132 0.004131
v 0.020836 0.005381 0.004477
v 0.021644 0.005034 0.004463
v 0.020796 0.005292 0.004789
v 0.021603 0.004944 0.004775
v 0.020742 0.005171 0.005063
v 0.021551 0.004830 0.005055
v 0.020630 0.004919 0.005180
v 0.021440 0.004582 0.005176
v 0.020509 0.004644 0.005207
v 0.021315 0.004300 0.005201
v 0.022122 0.003959 0.005211
v 0.021188 0.004013 0.005135
v 0.021989 0.003660 0.005137
v 0.022789 0.003308 0.005139
v 0.022113 0.003927 0.004215
v 0.022915 0.003573 0.004222
v 0.023714 0.003213 0.004230
v 0.023050 0.003847 0.003308
v 0.023851 0.003488 0.003319
v 0.024648 0.003119 0.003329
v 0.023992 0.003782 0.002404
v 0.024790 0.003414 0.002414
v 0.025586 0.003042 0.002428
v 0.024904 0.003653 0.001470
v 0.025702 0.003284 0.001481
v 0.026493 0.002901 0.001495
v 0.025749 0.003381 0.000491
v 0.026545 0.003010 0.000497
v 0.025752 0.003381 -0.000511
v 0.026546 0.003006 -0.000517
v 0.025704 0.003280 -0.001498
v 0.026500 0.002900 -0.001513
v 0.025585 0.003037 -0.002441
v 0.024904 0.003650 -0.001488
v 0.024785 0.003411 -0.002429
v 0.024635 0.003121 -0.003341
v 0.023983 0.003779 -0.002418
v 0.023832 0.003490 -0.003331
v 0.023689 0.003225 -0.004240
v 0.023024 0.003849 -0.003317
v 0.022883 0.003591 -0.004231
v 0.022753 0.003332 -0.005140
v 0.022075 0.003950 -0.004223
v 0.021947 0.003688 -0.005138
v 0.022102 0.004032 -0.005212
v 0.021136 0.004046 -0.005136
v 0.021278 0.004365 -0.005216
v 0.021399 0.004636 -0.005191
v 0.020443 0.004694 -0.005214
v 0.020562 0.004961 -0.005193
v 0.020664 0.005190 -0.005081
v 0.021498 0.004854 -0.005071
v 0.020720 0.005313 -0.004854
v 0.021546 0.004958 -0.004838
v 0.020755 0.005389 -0.004581
v 0.019887 0.005666 -0.004876
v 0.019924 0.005741 -0.004603
v 0.019961 0.005816 -0.004326
v 0.019077 0.006095 -0.004636
v 0.019118 0.006166 -0.004360
v 0.019164 0.006249 -0.004029
v 0.020005 0.005913 -0.003965
v 0.019231 0.006434 -0.003350
v 0.020062 0.006110 -0.003286
v 0.019304 0.006704 -0.002456
v 0.020120 0.006381 -0.002417
v 0.019352 0.006910 -0.001537
v 0.020168 0.006589 -0.001514
v 0.019363 0.006999 -0.000589
v 0.020182 0.006673 -0.000588
v 0.019372 0.007005 0.000364
v 0.020191 0.006680 0.000338
v 0.019385 0.006931 0.001305
v 0.020198 0.006614 0.001253
v 0.019367 0.006752 0.002210
v 0.020182 0.006442 0.002136
v 0.019330 0.006497 0.003052
v 0.020144 0.006187 0.002964
v 0.019289 0.006269 0.003783
v 0.020104 0.005958 0.003683
v 0.019248 0.006143 0.004231
v 0.020062 0.005815 0.004171
v 0.019212 0.006060 0.004541
v 0.020025 0.005722 0.004502
v 0.019177 0.005981 0.004835
v 0.019988 0.005637 0.004810
v 0.019120 0.005850 0.005074
v 0.019932 0.005510 0.005070
v 0.019017 0.005613 0.005180
v 0.019823 0.005262 0.005181
v 0.018904 0.005350 0.005200
v 0.019705 0.004995 0.005200
v 0.018784 0.005071 0.005130
v 0.019583 0.004719 0.005132
v 0.020385 0.004366 0.005133
v 0.019708 0.004983 0.004180
v 0.020509 0.004633 0.004198
v 0.021311 0.004280 0.004208
v 0.020634 0.004895 0.003267
v 0.021439 0.004549 0.003284
v 0.022244 0.004200 0.003297
v 0.021566 0.004817 0.002362
v 0.022375 0.004474 0.002377
v 0.023185 0.004130 0.002390
v 0.022478 0.004696 0.001438
v 0.023291 0.004357 0.001449
v 0.024102 0.004015 0.001460
v 0.023336 0.004452 0.000478
v 0.024148 0.004111 0.000484
v 0.024950 0.003748 0.000487
v 0.024148 0.004110 -0.000502
v 0.024951 0.003747 -0.000506
v 0.024100 0.004013 -0.001478
v 0.023335 0.004451 -0.000499
v 0.023286 0.004356 -0.001468
v 0.023172 0.004128 -0.002404
v 0.022468 0.004696 -0.001459
v 0.022355 0.004473 -0.002391
v 0.022212 0.004203 -0.003304
v 0.021534 0.004820 -0.002382
v 0.021395 0.004558 -0.003297
v 0.021262 0.004306 -0.004216
v 0.020574 0.004911 -0.003295
v 0.020443 0.004662 -0.004214
v 0.020317 0.004407 -0.005134
v 0.019614 0.005021 -0.004215
v 0.019487 0.004769 -0.005131
v 0.019604 0.005037 -0.005213
v 0.018641 0.005138 -0.005129
v 0.018753 0.005398 -0.005209
v 0.018864 0.005647 -0.005190
v 0.019718 0.005295 -0.005194
v 0.018968 0.005877 -0.005095
v 0.019823 0.005528 -0.005090
v 0.019039 0.006025 -0.004902
v 0.018082 0.006242 -0.005099
v 0.018160 0.006395 -0.004933
v 0.018202 0.006456 -0.004682
v 0.017261 0.006790 -0.004922
v 0.017339 0.006824 -0.004693
v 0.018251 0.006519 -0.004409
v 0.018311 0.006595 -0.004074
v 0.018414 0.006762 -0.003393
v 0.017754 0.007310 -0.002535
v 0.018518 0.007010 -0.002494
v 0.017853 0.007501 -0.001575
v 0.018574 0.007216 -0.001558
v 0.017911 0.007575 -0.000584
v 0.018596 0.007303 -0.000588
v 0.017918 0.007581 0.000415
v 0.018606 0.007308 0.000391
v 0.017883 0.007515 0.001415
v 0.018605 0.007234 0.001362
v 0.017802 0.007336 0.002389
v 0.018566 0.007052 0.002297
v 0.018528 0.006798 0.003157
v 0.018477 0.006575 0.003909
v 0.018423 0.006469 0.004325
v 0.017529 0.006752 0.004663
v 0.018384 0.006398 0.004608
v 0.017476 0.006703 0.004895
v 0.018351 0.006328 0.004876
v 0.017390 0.006578 0.005059
v 0.018291 0.006191 0.005075
v 0.017280 0.006360 0.005156
v 0.018201 0.005970 0.005174
v 0.017175 0.006104 0.005176
v 0.018098 0.005711 0.005194
v 0.017986 0.005421 0.005127
v 0.018161 0.005671 0.004098
v 0.018917 0.005330 0.004149
v 0.018286 0.005933 0.003116
v 0.019050 0.005588 0.003188
v 0.019835 0.005241 0.003239
v 0.019156 0.005849 0.002294
v 0.019956 0.005505 0.002323
v 0.020760 0.005161 0.002345
v 0.020036 0.005710 0.001400
v 0.020851 0.005372 0.001414
v 0.021665 0.005035 0.001427
v 0.020881 0.005460 0.000462
v 0.021701 0.005124 0.000468
v 0.022519 0.004788 0.000473
v 0.021695 0.005124 -0.000494
v 0.022515 0.004787 -0.000495
v 0.021645 0.005034 -0.001450
v 0.020871 0.005462 -0.000495
v 0.020821 0.005376 -0.001446
v 0.020711 0.005168 -0.002377
v 0.019996 0.005719 -0.001442
v 0.019887 0.005516 -0.002376
v 0.019745 0.005259 -0.003300
v 0.019072 0.005858 -0.002362
v 0.018912 0.005609 -0.003292
v 0.018769 0.005383 -0.004209
v 0.018107 0.005965 -0.003231
v 0.017929 0.005751 -0.004167
v 0.017768 0.005519 -0.005126
v 0.016896 0.006212 -0.005155
v 0.017877 0.005778 -0.005199
v 0.017020 0.006456 -0.005133
v 0.017980 0.006020 -0.005183
v 0.017149 0.006646 -0.005050
v 0.016144 0.007023 -0.004655
v 0.016360 0.007147 -0.004591
v 0.016547 0.007220 -0.004516
v 0.016730 0.007180 -0.004391
v 0.016069 0.007538 -0.003638
v 0.016290 0.007579 -0.003632
v 0.016502 0.007514 -0.003599
v 0.016352 0.007869 -0.002606
v 0.016593 0.007780 -0.002595
v 0.016840 0.007680 -0.002582
v 0.017139 0.007559 -0.002568
v 0.016712 0.007969 -0.001585
v 0.016973 0.007861 -0.001585
v 0.017278 0.007735 -0.001583
v 0.017057 0.007915 -0.000574
v 0.017359 0.007794 -0.000578
v 0.017062 0.007921 0.000440
v 0.017372 0.007797 0.000432
v 0.016975 0.007876 0.001469
v 0.017297 0.007746 0.001451
v 0.016844 0.007698 0.002508
v 0.017181 0.007572 0.002463
v 0.016708 0.007982 0.001481
v 0.016580 0.007795 0.002540
v 0.016525 0.007499 0.003595
v 0.016333 0.007847 0.002557
v 0.016285 0.007551 0.003662
v 0.016666 0.007154 0.004575
v 0.016839 0.007130 0.004401
v 0.016066 0.007510 0.003694
v 0.016510 0.007079 0.004693
v 0.015829 0.007406 0.003708
v 0.016308 0.006918 0.004806
v 0.015606 0.007221 0.003681
v 0.016109 0.006669 0.004844
v 0.015847 0.007725 0.002532
v 0.015651 0.007547 0.002487
v 0.015527 0.007301 0.002422
v 0.015754 0.007734 0.001424
v 0.015608 0.007494 0.001392
v 0.016563 0.007106 0.001387
v 0.016529 0.006903 0.002343
v 0.017468 0.006535 0.002294
v 0.017487 0.006732 0.001379
v 0.018368 0.006383 0.001377
v 0.018336 0.006188 0.002275
v 0.016569 0.007178 0.000439
v 0.017485 0.006814 0.000441
v 0.018369 0.006463 0.000444
v 0.019222 0.006124 0.000448
v 0.019214 0.006045 0.001386
v 0.017469 0.006815 -0.000500
v 0.018352 0.006465 -0.000498
v 0.019206 0.006127 -0.000496
v 0.020043 0.005794 -0.000495
v 0.020056 0.005791 0.000455
v 0.018324 0.006392 -0.001431
v 0.019169 0.006053 -0.001436
v 0.018258 0.006198 -0.002328
v 0.017440 0.006744 -0.001433
v 0.017393 0.006553 -0.002326
v 0.016532 0.007112 -0.001443
v 0.016475 0.006925 -0.002365
v 0.015606 0.007490 -0.001455
v 0.015530 0.007307 -0.002411
v 0.015752 0.007740 -0.001498
v 0.015673 0.007556 -0.002489
v 0.015609 0.007266 -0.003576
v 0.015826 0.007441 -0.003624
v 0.015919 0.006793 -0.004677
v 0.015871 0.007740 -0.002549
v 0.016110 0.007831 -0.002586
v 0.015954 0.007932 -0.001537
v 0.016201 0.008035 -0.001566
v 0.016467 0.008070 -0.001584
v 0.015988 0.008014 -0.000544
v 0.016241 0.008112 -0.000555
v 0.016512 0.008132 -0.000564
v 0.016777 0.008027 -0.000569
v 0.016241 0.008113 0.000454
v 0.016514 0.008139 0.000452
v 0.016781 0.008032 0.000446
v 0.016455 0.008083 0.001490
v 0.016189 0.008035 0.001478
v 0.016081 0.007825 0.002554
v 0.015947 0.007924 0.001457
v 0.015991 0.008003 0.000450
v 0.015786 0.007813 0.000443
v 0.015771 0.007831 -0.000530
v 0.015629 0.007546 -0.000514
v 0.015631 0.007552 0.000436
v 0.016558 0.007176 -0.000506
s 1
f 9 10 1
f 1 10 11
f 1 12 9
f 9 12 13
f 11 14 1
f 1 14 12
f 15 16 2
f 2 16 17
f 18 19 2
f 2 19 15
f 2 17 18
f 18 17 20
f 21 22 3
f 3 22 23
f 23 24 3
f 3 24 25
f 25 26 3
f 3 26 21
f 27 28 4
f 4 28 29
f 29 30 4
f 4 30 31
f 31 32 4
f 4 32 27
f 33 34 5
f 5 34 35
f 36 37 5
f 5 37 33
f 35 38 5
f 5 38 36
f 39 40 6
f 6 40 41
f 42 43 6
f 6 43 39
f 41 44 6
f 6 44 42
f 45 46 7
f 7 46 47
f 47 48 7
f 7 48 49
f 49 50 7
f 7 50 45
f 51 52 8
f 8 52 53
f 8 54 51
f 51 54 55
f 53 56 8
f 8 56 54
f 53 57 56
f 56 57 58
f 58 59 56
f 56 59 60
f 56 60 54
f 54 60 61
f 60 62 61
f 61 62 63
f 61 63 65
f 65 63 64
f 65 55 61
f 61 55 54
f 65 64 67
f 67 64 66
f 67 68 65
f 65 68 55
f 68 67 70
f 70 67 69
f 70 71 68
f 68 71 72
f 68 72 55
f 55 72 51
f 71 73 72
f 72 73 74
f 72 74 51
f 51 74 52
f 73 75 74
f 74 75 76
f 74 76 52
f 52 76 77
f 57 53 77
f 77 53 52
f 76 78 77
f 77 78 79
f 77 79 57
f 57 79 80
f 79 81 80
f 80 81 82
f 80 82 84
f 84 82 83
f 84 58 80
f 80 58 57
f 83 85 84
f 84 85 86
f 84 86 58
f 58 86 59
f 86 85 88
f 88 85 87
f 88 89 86
f 86 89 59
f 89 88 91
f 91 88 90
f 91 22 89
f 89 22 62
f 62 60 89
f 89 60 59
f 91 90 93
f 93 90 92
f 93 23 91
f 91 23 22
f 92 94 93
f 93 94 95
f 93 95 23
f 23 95 24
f 94 96 95
f 95 96 97
f 95 97 24
f 24 97 98
f 97 99 98
f 98 99 100
f 98 100 102
f 102 100 101
f 102 25 98
f 98 25 24
f 101 103 102
f 102 103 104
f 102 104 25
f 25 104 26
f 103 105 104
f 104 105 66
f 104 66 26
f 26 66 64
f 105 103 107
f 107 103 106
f 107 108 105
f 105 108 69
f 105 69 66
f 66 69 67
f 108 107 110
f 110 107 109
f 110 111 108
f 108 111 112
f 108 112 69
f 69 112 70
f 111 113 112
f 112 113 114
f 112 114 70
f 70 114 71
f 113 115 114
f 114 115 116
f 114 116 71
f 71 116 73
f 115 117 116
f 116 117 118
f 116 118 73
f 73 118 75
f 117 119 118
f 118 119 120
f 118 120 75
f 75 120 121
f 78 76 121
f 121 76 75
f 120 122 121
f 121 122 123
f 121 123 78
f 78 123 124
f 81 79 124
f 124 79 78
f 123 125 124
f 124 125 126
f 124 126 81
f 81 126 127
f 128 82 127
f 127 82 81
f 126 129 127
f 127 129 130
f 127 130 128
f 128 130 131
f 130 132 131
f 131 132 133
f 131 133 135
f 135 133 134
f 135 136 131
f 131 136 128
f 135 137 136
f 136 137 138
f 136 138 83
f 83 138 85
f 136 83 128
f 128 83 82
f 138 137 140
f 140 137 139
f 140 87 138
f 138 87 85
f 140 139 142
f 142 139 141
f 142 143 140
f 140 143 87
f 143 142 145
f 145 142 144
f 145 92 143
f 143 92 90
f 143 90 87
f 87 90 88
f 144 146 145
f 145 146 147
f 145 147 92
f 92 147 94
f 146 148 147
f 147 148 149
f 147 149 94
f 94 149 96
f 148 150 149
f 149 150 151
f 149 151 96
f 96 151 152
f 151 153 152
f 152 153 154
f 152 154 99
f 99 154 155
f 99 97 152
f 152 97 96
f 154 156 155
f 155 156 157
f 155 157 159
f 159 157 158
f 159 100 155
f 155 100 99
f 159 158 161
f 161 158 160
f 161 101 159
f 159 101 100
f 161 160 106
f 106 160 162
f 161 106 101
f 101 106 103
f 160 163 162
f 162 163 164
f 164 165 162
f 162 165 109
f 162 109 106
f 106 109 107
f 165 164 167
f 167 164 166
f 167 168 165
f 165 168 169
f 165 169 109
f 109 169 110
f 168 170 169
f 169 170 171
f 169 171 110
f 110 171 111
f 170 172 171
f 171 172 173
f 171 173 111
f 111 173 113
f 172 174 173
f 173 174 175
f 173 175 113
f 113 175 115
f 174 176 175
f 175 176 177
f 175 177 115
f 115 177 117
f 176 178 177
f 177 178 179
f 177 179 117
f 117 179 119
f 178 180 179
f 179 180 181
f 179 181 119
f 119 181 182
f 122 120 182
f 182 120 119
f 181 183 182
f 182 183 184
f 182 184 122
f 122 184 185
f 125 123 185
f 185 123 122
f 184 186 185
f 185 186 187
f 185 187 125
f 125 187 188
f 129 126 188
f 188 126 125
f 187 189 188
f 188 189 190
f 188 190 129
f 129 190 191
f 132 130 191
f 191 130 129
f 190 192 191
f 191 192 193
f 191 193 132
f 132 193 194
f 195 133 194
f 194 133 132
f 193 196 194
f 194 196 197
f 194 197 195
f 195 197 198
f 198 197 200
f 200 197 199
f 198 200 202
f 202 200 201
f 202 203 198
f 198 203 195
f 203 202 205
f 205 202 204
f 203 205 134
f 134 205 206
f 203 134 195
f 195 134 133
f 206 205 208
f 208 205 207
f 206 208 137
f 137 208 139
f 137 135 206
f 206 135 134
f 208 207 210
f 210 207 209
f 210 141 208
f 208 141 139
f 210 209 212
f 212 209 211
f 212 213 210
f 210 213 141
f 212 214 213
f 213 214 215
f 213 215 144
f 144 215 146
f 213 144 141
f 141 144 142
f 214 216 215
f 215 216 217
f 215 217 146
f 146 217 148
f 216 218 217
f 217 218 219
f 217 219 148
f 148 219 150
f 218 220 219
f 219 220 221
f 219 221 150
f 150 221 222
f 221 223 222
f 222 223 224
f 222 224 153
f 153 224 225
f 153 151 222
f 222 151 150
f 224 226 225
f 225 226 227
f 225 227 156
f 156 227 228
f 156 154 225
f 225 154 153
f 227 229 228
f 228 229 230
f 228 230 232
f 232 230 231
f 232 157 228
f 228 157 156
f 232 231 234
f 234 231 233
f 234 158 232
f 232 158 157
f 234 233 163
f 163 233 235
f 163 160 234
f 234 160 158
f 235 233 237
f 237 233 236
f 237 238 235
f 235 238 166
f 166 164 235
f 235 164 163
f 238 237 240
f 240 237 239
f 240 241 238
f 238 241 242
f 238 242 166
f 166 242 167
f 241 243 242
f 242 243 244
f 242 244 167
f 167 244 168
f 243 245 244
f 244 245 246
f 244 246 168
f 168 246 170
f 245 247 246
f 246 247 248
f 246 248 170
f 170 248 172
f 247 249 248
f 248 249 250
f 248 250 172
f 172 250 174
f 249 251 250
f 250 251 252
f 250 252 174
f 174 252 176
f 251 253 252
f 252 253 254
f 252 254 176
f 176 254 178
f 253 255 254
f 254 255 256
f 254 256 178
f 178 256 180
f 255 257 256
f 256 257 258
f 256 258 180
f 180 258 259
f 183 181 259
f 259 181 180
f 258 260 259
f 259 260 261
f 259 261 183
f 183 261 262
f 186 184 262
f 262 184 183
f 261 263 262
f 262 263 264
f 262 264 186
f 186 264 265
f 189 187 265
f 265 187 186
f 264 266 265
f 265 266 267
f 265 267 189
f 189 267 268
f 192 190 268
f 268 190 189
f 267 269 268
f 268 269 270
f 268 270 192
f 192 270 271
f 196 193 271
f 271 193 192
f 270 272 271
f 271 272 273
f 271 273 196
f 196 273 274
f 199 197 274
f 274 197 196
f 274 273 276
f 276 273 275
f 276 16 274
f 274 16 199
f 276 275 278
f 278 275 277
f 278 17 276
f 276 17 16
f 278 277 280
f 280 277 279
f 280 20 278
f 278 20 17
f 280 279 282
f 282 279 281
f 282 283 280
f 280 283 20
f 283 284 20
f 20 284 18
f 282 285 283
f 283 285 286
f 283 286 284
f 284 286 287
f 288 289 287
f 287 289 284
f 286 13 287
f 287 13 12
f 287 12 288
f 288 12 14
f 19 18 289
f 289 18 284
f 289 288 291
f 291 288 290
f 289 291 19
f 19 291 201
f 290 292 291
f 291 292 204
f 291 204 201
f 201 204 202
f 290 293 292
f 292 293 294
f 292 294 207
f 207 294 209
f 292 207 204
f 204 207 205
f 293 295 294
f 294 295 296
f 294 296 209
f 209 296 211
f 296 295 298
f 298 295 297
f 296 298 211
f 211 298 299
f 298 300 299
f 299 300 301
f 299 301 214
f 214 301 216
f 214 212 299
f 299 212 211
f 300 302 301
f 301 302 303
f 301 303 216
f 216 303 218
f 302 304 303
f 303 304 305
f 303 305 218
f 218 305 220
f 304 306 305
f 305 306 307
f 305 307 220
f 220 307 308
f 307 309 308
f 308 309 310
f 308 310 223
f 223 310 311
f 223 221 308
f 308 221 220
f 310 312 311
f 311 312 313
f 311 313 226
f 226 313 314
f 226 224 311
f 311 224 223
f 313 315 314
f 314 315 316
f 314 316 229
f 229 316 317
f 229 227 314
f 314 227 226
f 316 318 317
f 317 318 319
f 319 320 317
f 317 320 321
f 321 230 317
f 317 230 229
f 320 322 321
f 321 322 323
f 323 231 321
f 321 231 230
f 323 322 236
f 236 322 324
f 236 233 323
f 323 233 231
f 324 322 326
f 326 322 325
f 326 327 324
f 324 327 239
f 324 239 236
f 236 239 237
f 327 326 329
f 329 326 328
f 329 330 327
f 327 330 331
f 327 331 239
f 239 331 240
f 330 332 331
f 331 332 333
f 331 333 240
f 240 333 241
f 332 334 333
f 333 334 335
f 333 335 241
f 241 335 243
f 334 336 335
f 335 336 337
f 335 337 243
f 243 337 245
f 336 338 337
f 337 338 339
f 337 339 245
f 245 339 247
f 338 340 339
f 339 340 341
f 339 341 247
f 247 341 249
f 340 342 341
f 341 342 343
f 341 343 249
f 249 343 251
f 342 344 343
f 343 344 345
f 343 345 251
f 251 345 253
f 344 346 345
f 345 346 347
f 345 347 253
f 253 347 255
f 346 348 347
f 347 348 349
f 347 349 255
f 255 349 257
f 348 350 349
f 349 350 351
f 349 351 257
f 257 351 352
f 260 258 352
f 352 258 257
f 351 353 352
f 352 353 354
f 352 354 260
f 260 354 355
f 263 261 355
f 355 261 260
f 354 356 355
f 355 356 357
f 355 357 263
f 263 357 358
f 266 264 358
f 358 264 263
f 357 359 358
f 358 359 360
f 358 360 266
f 266 360 361
f 269 267 361
f 361 267 266
f 361 360 363
f 363 360 362
f 363 364 361
f 361 364 269
f 364 272 269
f 269 272 270
f 364 363 366
f 366 363 365
f 366 367 364
f 364 367 272
f 367 275 272
f 272 275 273
f 367 366 369
f 369 366 368
f 369 277 367
f 367 277 275
f 369 368 371
f 371 368 370
f 371 279 369
f 369 279 277
f 371 370 373
f 373 370 372
f 373 281 371
f 371 281 279
f 372 374 373
f 373 374 375
f 375 376 373
f 373 376 281
f 376 285 281
f 281 285 282
f 375 377 376
f 376 377 378
f 376 378 285
f 285 378 379
f 13 286 379
f 379 286 285
f 378 380 379
f 379 380 381
f 379 381 13
f 13 381 9
f 380 382 381
f 381 382 383
f 381 383 9
f 9 383 10
f 383 382 385
f 385 382 384
f 383 385 10
f 10 385 297
f 385 384 300
f 300 384 302
f 300 298 385
f 385 298 297
f 384 382 387
f 387 382 386
f 384 387 302
f 302 387 304
f 387 386 389
f 389 386 388
f 389 306 387
f 387 306 304
f 389 388 391
f 391 388 390
f 391 392 389
f 389 392 306
f 392 391 394
f 394 391 393
f 392 394 309
f 309 394 395
f 309 307 392
f 392 307 306
f 394 396 395
f 395 396 397
f 395 397 312
f 312 397 398
f 312 310 395
f 395 310 309
f 397 399 398
f 398 399 400
f 398 400 315
f 315 400 401
f 315 313 398
f 398 313 312
f 401 400 403
f 403 400 402
f 401 403 318
f 318 403 404
f 318 316 401
f 401 316 315
f 404 403 406
f 406 403 405
f 404 406 408
f 408 406 407
f 404 408 318
f 318 408 319
f 408 407 410
f 410 407 409
f 408 410 319
f 319 410 320
f 409 411 410
f 410 411 325
f 410 325 320
f 320 325 322
f 409 412 411
f 411 412 413
f 413 414 411
f 411 414 328
f 411 328 325
f 325 328 326
f 413 415 414
f 414 415 416
f 414 416 418
f 418 416 417
f 418 329 414
f 414 329 328
f 418 417 420
f 420 417 419
f 418 420 329
f 329 420 330
f 419 421 420
f 420 421 422
f 420 422 330
f 330 422 332
f 421 423 422
f 422 423 424
f 422 424 332
f 332 424 334
f 423 425 424
f 424 425 426
f 424 426 334
f 334 426 336
f 425 427 426
f 426 427 428
f 426 428 336
f 336 428 338
f 427 429 428
f 428 429 430
f 428 430 338
f 338 430 340
f 429 431 430
f 430 431 432
f 430 432 340
f 340 432 342
f 431 433 432
f 432 433 434
f 432 434 342
f 342 434 344
f 433 435 434
f 434 435 436
f 434 436 344
f 344 436 346
f 435 437 436
f 436 437 438
f 436 438 346
f 346 438 348
f 438 437 440
f 440 437 439
f 438 440 348
f 348 440 350
f 440 439 442
f 442 439 441
f 442 443 440
f 440 443 350
f 443 353 350
f 350 353 351
f 443 442 445
f 445 442 444
f 445 446 443
f 443 446 353
f 356 354 446
f 446 354 353
f 446 445 448
f 448 445 447
f 446 448 356
f 356 448 449
f 359 357 449
f 449 357 356
f 448 450 449
f 449 450 451
f 449 451 359
f 359 451 452
f 362 360 452
f 452 360 359
f 452 451 454
f 454 451 453
f 454 455 452
f 452 455 362
f 455 365 362
f 362 365 363
f 455 454 457
f 457 454 456
f 457 458 455
f 455 458 365
f 458 368 365
f 365 368 366
f 458 457 460
f 460 457 459
f 460 370 458
f 458 370 368
f 460 459 462
f 462 459 461
f 462 372 460
f 460 372 370
f 461 463 462
f 462 463 464
f 462 464 372
f 372 464 374
f 463 465 464
f 464 465 466
f 464 466 374
f 374 466 467
f 377 375 467
f 467 375 374
f 466 468 467
f 467 468 469
f 467 469 377
f 377 469 470
f 380 378 470
f 470 378 377
f 469 388 470
f 470 388 386
f 470 386 380
f 380 386 382
f 468 390 469
f 469 390 388
f 468 466 471
f 471 466 465
f 471 472 468
f 468 472 390
f 472 471 474
f 474 471 473
f 474 475 472
f 472 475 393
f 472 393 390
f 390 393 391
f 475 474 477
f 477 474 476
f 475 477 396
f 396 477 478
f 475 396 393
f 393 396 394
f 477 479 478
f 478 479 480
f 478 480 399
f 399 480 481
f 399 397 478
f 478 397 396
f 480 482 481
f 481 482 483
f 481 483 402
f 402 483 484
f 481 402 399
f 399 402 400
f 483 485 484
f 484 485 486
f 486 487 484
f 484 487 405
f 484 405 402
f 402 405 403
f 487 486 489
f 489 486 488
f 489 490 487
f 487 490 491
f 487 491 405
f 405 491 406
f 490 492 491
f 491 492 493
f 491 493 406
f 406 493 407
f 492 494 493
f 493 494 412
f 412 409 493
f 493 409 407
f 494 492 496
f 496 492 495
f 494 496 415
f 415 496 497
f 494 415 412
f 412 415 413
f 497 496 499
f 499 496 498
f 497 499 501
f 501 499 500
f 501 416 497
f 497 416 415
f 501 500 503
f 503 500 502
f 503 417 501
f 501 417 416
f 503 502 505
f 505 502 504
f 505 419 503
f 503 419 417
f 505 504 507
f 507 504 506
f 505 507 419
f 419 507 421
f 507 506 509
f 509 506 508
f 507 509 421
f 421 509 423
f 509 508 511
f 511 508 510
f 509 511 423
f 423 511 425
f 510 512 511
f 511 512 513
f 511 513 425
f 425 513 427
f 512 514 513
f 513 514 515
f 513 515 427
f 427 515 429
f 514 516 515
f 515 516 517
f 515 517 429
f 429 517 431
f 516 518 517
f 517 518 519
f 517 519 431
f 431 519 433
f 519 518 521
f 521 518 520
f 521 435 519
f 519 435 433
f 521 520 523
f 523 520 522
f 523 437 521
f 521 437 435
f 523 522 525
f 525 522 524
f 525 439 523
f 523 439 437
f 525 524 527
f 527 524 526
f 527 441 525
f 525 441 439
f 527 526 529
f 529 526 528
f 529 530 527
f 527 530 441
f 530 444 441
f 441 444 442
f 530 529 532
f 532 529 531
f 532 533 530
f 530 533 444
f 533 447 444
f 444 447 445
f 532 534 533
f 533 534 535
f 533 535 447
f 447 535 536
f 450 448 536
f 536 448 447
f 535 537 536
f 536 537 538
f 538 539 536
f 536 539 450
f 539 453 450
f 450 453 451
f 539 538 541
f 541 538 540
f 541 542 539
f 539 542 453
f 542 456 453
f 453 456 454
f 542 541 544
f 544 541 543
f 544 545 542
f 542 545 456
f 545 459 456
f 456 459 457
f 545 544 547
f 547 544 546
f 547 461 545
f 545 461 459
f 546 548 547
f 547 548 549
f 547 549 461
f 461 549 463
f 548 550 549
f 549 550 551
f 549 551 463
f 463 551 465
f 550 552 551
f 551 552 473
f 551 473 465
f 465 473 471
f 552 550 554
f 554 550 553
f 552 554 476
f 476 554 555
f 552 476 473
f 473 476 474
f 554 556 555
f 555 556 557
f 555 557 479
f 479 557 558
f 479 477 555
f 555 477 476
f 557 559 558
f 558 559 560
f 558 560 482
f 482 560 561
f 482 480 558
f 558 480 479
f 560 562 561
f 561 562 563
f 563 564 561
f 561 564 485
f 485 483 561
f 561 483 482
f 564 563 566
f 566 563 565
f 566 567 564
f 564 567 488
f 564 488 485
f 485 488 486
f 567 566 569
f 569 566 568
f 569 570 567
f 567 570 571
f 567 571 488
f 488 571 489
f 570 572 571
f 571 572 573
f 571 573 489
f 489 573 490
f 572 574 573
f 573 574 495
f 573 495 490
f 490 495 492
f 574 572 576
f 576 572 575
f 576 577 574
f 574 577 498
f 574 498 495
f 495 498 496
f 577 576 579
f 579 576 578
f 579 580 577
f 577 580 581
f 577 581 498
f 498 581 499
f 580 582 581
f 581 582 583
f 581 583 499
f 499 583 500
f 582 584 583
f 583 584 585
f 585 502 583
f 583 502 500
f 584 586 585
f 585 586 587
f 587 504 585
f 585 504 502
f 587 586 589
f 589 586 588
f 589 506 587
f 587 506 504
f 589 588 591
f 591 588 590
f 591 508 589
f 589 508 506
f 591 590 593
f 593 590 592
f 593 510 591
f 591 510 508
f 593 592 595
f 595 592 594
f 595 512 593
f 593 512 510
f 595 594 597
f 597 594 596
f 597 514 595
f 595 514 512
f 597 596 599
f 599 596 598
f 599 516 597
f 597 516 514
f 599 598 601
f 601 598 600
f 601 518 599
f 599 518 516
f 601 600 603
f 603 600 602
f 603 520 601
f 601 520 518
f 603 602 605
f 605 602 604
f 605 522 603
f 603 522 520
f 605 604 607
f 607 604 606
f 607 524 605
f 605 524 522
f 607 606 609
f 609 606 608
f 609 526 607
f 607 526 524
f 608 610 609
f 609 610 611
f 611 528 609
f 609 528 526
f 610 612 611
f 611 612 613
f 613 614 611
f 611 614 528
f 614 531 528
f 528 531 529
f 614 613 616
f 616 613 615
f 616 617 614
f 614 617 531
f 617 534 531
f 531 534 532
f 617 616 619
f 619 616 618
f 617 619 534
f 534 619 620
f 537 535 620
f 620 535 534
f 620 619 622
f 622 619 621
f 622 623 620
f 620 623 537
f 623 540 537
f 537 540 538
f 623 622 625
f 625 622 624
f 625 626 623
f 623 626 540
f 626 543 540
f 540 543 541
f 626 625 628
f 628 625 627
f 628 629 626
f 626 629 543
f 629 546 543
f 543 546 544
f 628 630 629
f 629 630 631
f 629 631 546
f 546 631 548
f 630 632 631
f 631 632 553
f 631 553 548
f 548 553 550
f 632 630 634
f 634 630 633
f 632 634 556
f 556 634 635
f 632 556 553
f 553 556 554
f 634 636 635
f 635 636 637
f 635 637 559
f 559 637 638
f 559 557 635
f 635 557 556
f 637 639 638
f 638 639 640
f 638 640 562
f 562 640 641
f 562 560 638
f 638 560 559
f 640 642 641
f 641 642 643
f 641 643 565
f 565 643 644
f 565 563 641
f 641 563 562
f 643 645 644
f 644 645 646
f 646 647 644
f 644 647 568
f 644 568 565
f 565 568 566
f 647 646 649
f 649 646 648
f 649 650 647
f 647 650 651
f 647 651 568
f 568 651 569
f 650 652 651
f 651 652 653
f 651 653 569
f 569 653 570
f 652 654 653
f 653 654 575
f 653 575 570
f 570 575 572
f 654 652 656
f 656 652 655
f 656 657 654
f 654 657 578
f 654 578 575
f 575 578 576
f 657 656 659
f 659 656 658
f 659 34 657
f 657 34 660
f 657 660 578
f 578 660 579
f 34 33 660
f 660 33 661
f 660 661 579
f 579 661 580
f 33 37 661
f 661 37 662
f 661 662 580
f 580 662 582
f 37 663 662
f 662 663 664
f 662 664 582
f 582 664 584
f 663 665 664
f 664 665 666
f 664 666 584
f 584 666 586
f 665 667 666
f 666 667 668
f 668 588 666
f 666 588 586
f 668 667 670
f 670 667 669
f 670 590 668
f 668 590 588
f 670 669 672
f 672 669 671
f 672 592 670
f 670 592 590
f 672 671 674
f 674 671 673
f 674 594 672
f 672 594 592
f 674 673 675
f 675 673 28
f 675 596 674
f 674 596 594
f 675 28 676
f 676 28 27
f 676 598 675
f 675 598 596
f 676 27 677
f 677 27 32
f 677 600 676
f 676 600 598
f 677 32 679
f 679 32 678
f 679 602 677
f 677 602 600
f 679 678 681
f 681 678 680
f 681 604 679
f 679 604 602
f 681 680 683
f 683 680 682
f 683 606 681
f 681 606 604
f 683 682 685
f 685 682 684
f 683 685 606
f 606 685 608
f 684 686 685
f 685 686 687
f 685 687 608
f 608 687 610
f 686 46 687
f 687 46 688
f 687 688 610
f 610 688 612
f 46 45 688
f 688 45 689
f 688 689 612
f 612 689 690
f 690 615 612
f 612 615 613
f 690 689 692
f 692 689 691
f 692 693 690
f 690 693 615
f 693 618 615
f 615 618 616
f 693 692 695
f 695 692 694
f 695 696 693
f 693 696 618
f 696 621 618
f 618 621 619
f 696 695 698
f 698 695 697
f 698 699 696
f 696 699 621
f 699 624 621
f 621 624 622
f 699 698 701
f 701 698 700
f 701 702 699
f 699 702 624
f 702 627 624
f 624 627 625
f 702 701 704
f 704 701 703
f 704 633 702
f 702 633 627
f 704 703 636
f 636 703 705
f 636 634 704
f 704 634 633
f 703 706 705
f 705 706 707
f 705 707 639
f 639 707 708
f 639 637 705
f 705 637 636
f 707 709 708
f 708 709 710
f 708 710 642
f 642 710 711
f 642 640 708
f 708 640 639
f 710 712 711
f 711 712 713
f 711 713 645
f 645 713 714
f 645 643 711
f 711 643 642
f 713 715 714
f 714 715 716
f 714 716 648
f 648 716 717
f 648 646 714
f 714 646 645
f 716 42 717
f 717 42 44
f 717 44 719
f 719 44 718
f 719 649 717
f 717 649 648
f 718 720 719
f 719 720 721
f 719 721 649
f 649 721 650
f 720 722 721
f 721 722 655
f 721 655 650
f 650 655 652
f 722 720 724
f 724 720 723
f 724 725 722
f 722 725 658
f 722 658 655
f 655 658 656
f 725 726 658
f 658 726 659
f 724 727 725
f 725 727 728
f 725 728 726
f 726 728 729
f 38 35 729
f 729 35 726
f 728 730 729
f 729 730 731
f 729 731 38
f 38 731 732
f 733 36 732
f 732 36 38
f 731 734 732
f 732 734 735
f 732 735 733
f 733 735 736
f 665 663 736
f 736 663 733
f 735 737 736
f 736 737 738
f 736 738 665
f 665 738 667
f 738 737 740
f 740 737 739
f 740 669 738
f 738 669 667
f 740 739 742
f 742 739 741
f 742 671 740
f 740 671 669
f 742 741 744
f 744 741 743
f 744 673 742
f 742 673 671
f 744 743 29
f 29 743 30
f 29 28 744
f 744 28 673
f 741 745 743
f 743 745 746
f 743 746 30
f 30 746 747
f 746 748 747
f 747 748 749
f 747 749 751
f 751 749 750
f 751 31 747
f 747 31 30
f 750 680 751
f 751 680 678
f 751 678 31
f 31 678 32
f 749 752 750
f 750 752 753
f 753 682 750
f 750 682 680
f 752 754 753
f 753 754 755
f 755 684 753
f 753 684 682
f 754 756 755
f 755 756 757
f 757 686 755
f 755 686 684
f 756 48 757
f 757 48 47
f 757 47 686
f 686 47 46
f 756 754 759
f 759 754 758
f 759 760 756
f 756 760 48
f 760 759 762
f 762 759 761
f 760 762 764
f 764 762 763
f 764 49 760
f 760 49 48
f 764 765 49
f 49 765 50
f 763 766 764
f 764 766 765
f 766 767 765
f 765 767 768
f 766 763 770
f 770 763 769
f 770 771 766
f 766 771 767
f 771 772 767
f 767 772 773
f 771 770 775
f 775 770 774
f 775 776 771
f 771 776 772
f 776 777 772
f 772 777 778
f 776 775 780
f 780 775 779
f 780 709 776
f 776 709 777
f 779 781 780
f 780 781 712
f 712 710 780
f 780 710 709
f 781 779 783
f 783 779 782
f 783 43 781
f 781 43 715
f 781 715 712
f 712 715 713
f 783 782 785
f 785 782 784
f 785 39 783
f 783 39 43
f 784 786 785
f 785 786 787
f 785 787 39
f 39 787 40
f 786 788 787
f 787 788 789
f 787 789 40
f 40 789 790
f 791 723 790
f 790 723 792
f 792 41 790
f 790 41 40
f 790 789 791
f 791 789 793
f 794 727 793
f 793 727 791
f 789 788 793
f 793 788 795
f 793 795 794
f 794 795 796
f 797 730 796
f 796 730 794
f 796 795 799
f 799 795 798
f 799 800 796
f 796 800 797
f 801 734 800
f 800 734 797
f 800 799 803
f 803 799 802
f 803 804 800
f 800 804 801
f 804 739 801
f 801 739 737
f 804 803 745
f 745 803 805
f 745 741 804
f 804 741 739
f 803 802 805
f 805 802 806
f 805 806 748
f 748 806 807
f 748 746 805
f 805 746 745
f 806 808 807
f 807 808 758
f 807 758 752
f 752 758 754
f 752 749 807
f 807 749 748
f 808 806 809
f 809 806 802
f 809 810 808
f 808 810 761
f 808 761 758
f 758 761 759
f 810 809 811
f 811 809 798
f 811 812 810
f 810 812 813
f 810 813 761
f 761 813 762
f 812 814 813
f 813 814 769
f 813 769 762
f 762 769 763
f 814 774 769
f 769 774 770
f 814 812 784
f 784 812 786
f 784 782 814
f 814 782 774
f 812 811 786
f 786 811 788
f 811 798 788
f 788 798 795
f 809 802 798
f 798 802 799
f 737 735 801
f 801 735 734
f 734 731 797
f 797 731 730
f 730 728 794
f 794 728 727
f 792 723 718
f 718 723 720
f 718 44 792
f 792 44 41
f 791 727 723
f 723 727 724
f 782 779 774
f 774 779 775
f 778 700 697
f 697 700 698
f 697 773 778
f 778 773 772
f 777 706 778
f 778 706 700
f 709 707 777
f 777 707 706
f 773 697 694
f 694 697 695
f 694 768 773
f 773 768 767
f 768 694 691
f 691 694 692
f 691 50 768
f 768 50 765
f 663 37 733
f 733 37 36
f 726 35 659
f 659 35 34
f 716 715 42
f 42 715 43
f 706 703 700
f 700 703 701
f 689 45 691
f 691 45 50
f 633 630 627
f 627 630 628
f 295 11 297
f 297 11 10
f 295 293 11
f 11 293 14
f 293 290 14
f 14 290 288
f 200 15 201
f 201 15 19
f 200 199 15
f 15 199 16
f 63 21 64
f 64 21 26
f 63 62 21
f 21 62 22
